<svg width="28" height="43" fill="none" xmlns="http://www.w3.org/2000/svg"><path d="M21.895 37.41l-.235-2.125c.144 1.28-.643 2.575-2.334 3.525-3.067 1.73-7.97 1.69-10.958-.105-1.6-.964-2.32-2.232-2.176-3.46-.08.7-.17 1.413-.25 2.113-.144 1.268.59 2.575 2.242 3.565 3.08 1.85 8.127 1.902 11.3.12 1.756-.978 2.556-2.325 2.411-3.632z" fill="#FCB532"/><path d="M20.529 34.64c.006-2.129-2.941-3.864-6.583-3.874-3.641-.01-6.598 1.708-6.604 3.837-.006 2.13 2.941 3.865 6.583 3.875 3.641.01 6.598-1.708 6.604-3.837z" fill="#FCB532"/><path d="M21.66 35.179c-.013-.08-.026-.185-.04-.264a4.97 4.97 0 00-.104-.423 3.233 3.233 0 00-.184-.449 5.422 5.422 0 00-.301-.528 5.086 5.086 0 00-.76-.872 6.089 6.089 0 00-1.01-.74c-.066-.039-.42-.25-.944-.488a7.985 7.985 0 00-1.01-.37c-.143-.04-.537-.158-1.06-.264-.486-.092-.853-.132-1.089-.158a11.817 11.817 0 00-4.391.357c-.472.132-.84.277-1.023.343a8.01 8.01 0 00-.957.462c-.157.08-.354.211-.51.317-.106.066-.237.172-.342.25a3.205 3.205 0 00-.445.397c-.079.08-.184.185-.25.264-.117.132-.262.33-.366.476 0 0-.184.264-.315.554-.04.08-.079.185-.118.264-.04.12-.105.29-.131.423-.04.158-.066.37-.092.541-.013.08-.013.185-.013.278 0 1.135.721 2.284 2.19 3.156 2.975 1.796 7.89 1.849 10.958.105 1.56-.884 2.346-2.06 2.346-3.235-.026-.106-.026-.277-.04-.396zm-3.12 2.218c-2.608 1.48-6.79 1.44-9.333-.092s-2.478-3.962.131-5.44c2.609-1.48 6.79-1.44 9.333.092 2.53 1.518 2.478 3.961-.13 5.44z" fill="url(#paint0_linear)"/><path d="M19.163 31.964c.005-1.685-2.333-3.057-5.221-3.065-2.889-.009-5.234 1.35-5.24 3.035-.004 1.685 2.334 3.057 5.223 3.066 2.888.008 5.234-1.351 5.238-3.036z" fill="#FCC82B"/><path d="M20.074 32.392c0-.066-.027-.145-.04-.21a1.365 1.365 0 00-.091-.331c-.04-.106-.092-.25-.145-.357a4.34 4.34 0 00-.236-.422 3.399 3.399 0 00-.603-.687c-.327-.304-.629-.488-.8-.594-.052-.026-.34-.198-.746-.383a5.776 5.776 0 00-.8-.29 6.622 6.622 0 00-.839-.212c-.38-.08-.668-.105-.865-.132a10.31 10.31 0 00-1.77-.013 9.16 9.16 0 00-1.717.304c-.354.105-.642.21-.813.277-.34.132-.485.224-.76.37a4.24 4.24 0 00-.406.25c-.079.053-.197.146-.276.199a2.016 2.016 0 00-.354.317 2.896 2.896 0 00-.196.21c-.092.107-.21.265-.302.384 0 0-.144.211-.249.449-.118.264-.17.449-.196.541a4.996 4.996 0 00-.066.436c-.013.066 0 .159-.013.211 0 .912.577 1.81 1.743 2.51 2.373 1.426 6.28 1.465 8.717.092 1.246-.7 1.862-1.638 1.862-2.575-.026-.106-.026-.238-.04-.344zm-2.491 1.744c-2.071 1.175-5.388 1.135-7.393-.08-2.019-1.215-1.966-3.143.105-4.318 2.07-1.175 5.387-1.136 7.393.08 2.005 1.214 1.966 3.155-.105 4.318z" fill="#FCB532"/><path d="M18.225 35.298c-2.438 1.373-6.344 1.334-8.717-.093-1.167-.7-1.743-1.61-1.743-2.509v1.77c0 .911.576 1.809 1.743 2.509 2.373 1.426 6.279 1.466 8.717.092 1.245-.7 1.861-1.637 1.861-2.575v-1.77c0 .938-.616 1.876-1.86 2.576z" fill="#FCB532"/><path d="M16.298 31.706c-.027-.014-.236-.146-.538-.251a5.01 5.01 0 00-.708-.198c-.078-.014-.183-.04-.275-.053-.079-.013-.197-.027-.275-.04-.079-.013-.197-.013-.289-.026-.091 0-.196-.013-.288-.013h-.288c-.158 0-.46.026-.564.04l-.289.039a8.49 8.49 0 00-.498.105c-.078.027-.17.053-.236.08-.065.026-.144.053-.196.079-.066.026-.144.066-.197.092-.052.027-.118.066-.17.093-.092.053-.105.066-.17.119.091-.093.196-.264.21-.264.039-.066.13-.212.235-.436.04-.093.092-.225.131-.33.04-.093.079-.225.118-.33.04-.133.092-.304.118-.436.066-.278.144-.647.184-.938.026-.185.065-.436.078-.62.027-.238.053-.568.066-.806.013-.211.013-.489.026-.7 0-.211.144-.422.42-.581.55-.317 1.441-.304 1.979.026.262.159.393.357.393.568.013.528.04 1.096.079 1.453.065.62.105.938.262 1.584.026.146.079.317.131.463.04.105.079.237.118.33.04.105.092.238.144.343.092.198.184.344.236.45l.079.118c.04.053.052.08.105.119a1.716 1.716 0 01-.131-.08zm-1.376-7.25c-.525-.317-1.39-.33-1.94-.014-.538.304-.55.82-.026 1.136.524.317 1.389.33 1.94.013.55-.317.563-.819.026-1.135z" fill="#F4C537"/><path d="M15.34 25.01c0 .211.013.489.026.7.014.211.027.489.053.687.026.185.04.449.078.634.04.29.105.673.184.95.105.423.223.793.367 1.123.21.489.406.7.459.753a.323.323 0 01-.066-.053c-.026-.013-.065-.04-.091-.053a3.467 3.467 0 00-.315-.158c-.118-.053-.275-.106-.393-.146-.079-.026-.184-.052-.262-.079-.08-.026-.184-.04-.263-.053-.157-.026-.38-.053-.537-.079a5.598 5.598 0 00-.577-.026c-.34 0-.524.013-.564.013-.078.013-.196.013-.275.026-.367.053-.393.053-.524.093-.079.013-.184.04-.262.066-.066.013-.145.04-.21.066-.066.026-.157.053-.223.079-.092.04-.21.092-.301.145a.806.806 0 00-.236.159c.091-.093.157-.198.157-.198.04-.066.092-.146.131-.212.04-.066.079-.145.105-.21.118-.265.118-.265.262-.648.053-.132.105-.317.131-.449.066-.277.144-.647.197-.924.04-.185.065-.45.091-.634.027-.198.053-.476.066-.674.013-.264.026-.62.04-.885-.092 5.15-2.045 6.22-2.557 6.458.013-.594.407-1.175 1.193-1.624 1.56-.885 4.05-.859 5.571.053.734.448 1.114 1.016 1.114 1.584-.563-.25-2.503-1.334-2.569-6.484z" fill="url(#paint1_linear)"/><path d="M15.34 25.01c.065 5.15 2.005 6.233 2.517 6.471.013.608-.394 1.215-1.193 1.664-.354-.462-1.717-2.35-1.757-7.54.302-.172.446-.384.433-.595z" fill="url(#paint2_linear)"/><path d="M9.98 31.455c.51-.238 2.464-1.308 2.556-6.458 0 .211.13.423.393.581.537.33 1.429.33 1.98.027.039 5.19 1.389 7.078 1.756 7.54-1.56.885-4.05.858-5.571-.053-.747-.462-1.115-1.056-1.115-1.637z" fill="url(#paint3_linear)"/><path d="M24.045 5.955c-.026 9.6-4.575 17.365-10.172 17.352 1.075.647 2.11.673 3.028.145.25-.145.564-.357.8-.515a4.69 4.69 0 00.498-.396c.157-.132.354-.304.498-.45.262-.263.616-.633.852-.924.17-.21.393-.488.55-.713.223-.317.512-.766.721-1.096.158-.277.367-.647.512-.937.183-.37.432-.872.59-1.255.13-.33.314-.779.445-1.11.145-.409.341-.963.46-1.386.261-.898.497-1.822.668-2.76.183-.977.314-1.928.42-2.984.078-.898.104-2.073.13-2.971z" fill="#F4C537"/><path d="M10.714 23.36c.131.079.315.171.446.25.118.053.275.133.38.186 0 0 .328.145.682.25.406.12.655.159.839.185.078.013.183.027.262.027.157.013.354.026.498.026.157 0 .197 0 .498-.013.079 0 .184-.013.262-.027.197-.026.42-.052.84-.171a8.48 8.48 0 00.694-.238c.236-.106.537-.25.773-.37-.917.515-1.94.502-3.028-.145-5.584-.013-10.093-7.805-10.067-17.405 0 .502 0 1.175.04 1.69.026.436.065 1.017.104 1.466.053.489.105 1.136.197 1.611.065.41.144.964.236 1.374.092.462.223 1.07.34 1.532.092.383.237.884.341 1.254.132.436.315 1.017.486 1.44.13.33.301.779.445 1.096.184.409.433.95.656 1.346.144.278.354.648.524.912.249.383.603.898.865 1.267.157.212.38.476.55.674.184.198.433.475.63.66.629.542.957.766 1.507 1.123z" fill="#F4C537"/><path d="M15.446 25.38c-.865.489-2.255.476-3.094-.026-.419-.251-.616-.568-.616-.898 0 .158.026.356.184.62.17.265.432.423.524.476 0 0 .157.092.275.145.08.027.184.066.263.093.039.013.104.026.144.04.105.026.38.092.747.092.262 0 .537-.027.76-.08l.158-.04.275-.092a.7.7 0 00.144-.066.528.528 0 00.118-.066 1.5 1.5 0 00.55-.488.76.76 0 00.092-.172c.027-.053.04-.119.066-.159a.472.472 0 00.026-.131c0-.027.013-.053.013-.093 0 .317-.223.62-.629.845z" fill="#FCC82B"/><path d="M15.67 23.753c.002-.562-.777-1.02-1.74-1.022-.963-.003-1.745.45-1.746 1.012-.002.562.777 1.019 1.74 1.022.963.002 1.745-.45 1.746-1.012z" fill="#FCC82B"/><path d="M16.063 23.782a.976.976 0 00-.144-.29 1.254 1.254 0 00-.223-.251 1.867 1.867 0 00-.289-.212 3.1 3.1 0 00-.538-.238c-.261-.078-.51-.105-.589-.118a3.02 3.02 0 00-.616 0c-.04 0-.17.013-.301.04-.158.026-.276.066-.302.066a1.88 1.88 0 00-.537.224 1.795 1.795 0 00-.367.277c-.092.106-.105.106-.184.212 0 0-.052.079-.092.171a1.54 1.54 0 00-.078.212.796.796 0 00-.027.158v.08c0 .316.21.646.617.897.838.502 2.228.515 3.093.027.446-.251.655-.581.669-.911-.04-.133-.053-.212-.092-.344zm-.918.7c-.694.396-1.796.383-2.464-.026-.669-.41-.656-1.043.04-1.44.694-.396 1.795-.383 2.463.027.67.396.656 1.043-.039 1.44z" fill="#FCC82B"/><path d="M15.446 25.023c-.865.49-2.255.476-3.094-.026-.419-.25-.616-.568-.616-.898v.357c0 .317.21.647.616.898.84.502 2.229.515 3.094.026.446-.25.655-.581.668-.911v-.357c0 .33-.222.66-.668.912z" fill="#FCB532"/><path d="M24.045 5.96C24.055 2.7 19.531.046 13.942.03 8.353.013 3.815 2.643 3.806 5.903c-.01 3.26 4.514 5.916 10.103 5.932 5.589.016 10.127-2.614 10.136-5.874z" fill="#FFDA80"/><path d="M8.014 20.045C5.969 19.98.358 18.235.358 13.178c0-1.888.499-3.394 1.43-4.331.668-.674 1.546-1.03 2.53-1.03h.038l-.013 1.188c-.694 0-1.271.225-1.73.687-.695.713-1.075 1.915-1.075 3.486 0 4.173 4.772 5.626 6.515 5.679l-.04 1.188zM20.716 2.191C17.177.051 10.976 0 7.32 2.06c-3.658 2.06-3.736 5.467-.184 7.607 3.552 2.139 9.753 2.192 13.397.132 3.657-2.06 3.736-5.468.183-7.607z" fill="#FCB532"/><path d="M.673 13.535c0-1.889.498-3.394 1.429-4.332a3.47 3.47 0 012.241-1.017v-.37h-.039c-.983 0-1.861.357-2.53 1.03-.917.938-1.416 2.43-1.416 4.332 0 1.796.708 3.17 1.704 4.2a5.857 5.857 0 01-1.389-3.843z" fill="#FCC82B"/><path d="M19.81 20.045l-.038-1.188c1.743-.053 6.514-1.506 6.514-5.679 0-1.571-.38-2.773-1.088-3.486-.458-.462-1.035-.687-1.73-.687l-.013-1.188c.996 0 1.888.343 2.57 1.03.943.937 1.428 2.43 1.428 4.331.013 5.058-5.597 6.801-7.642 6.867z" fill="#FCB532"/><path d="M25.88 15.12c-.97 2.231-3.538 3.3-5.203 3.63l.157.344c.669-.132 4.667-1.479 5.047-3.975z" fill="#FCC82B"/><path d="M20.977 10.18c-4.01 2.258-10.408 2.193-14.301-.145-1.861-1.122-2.818-2.562-2.858-4.014.013.435.013.964.027 1.373.026.502.052 1.162.104 1.65.092.846.25 1.968.38 2.8.08.463.197 1.057.328 1.506.118.436.262 1.03.394 1.466.222.7.537 1.624.825 2.297.158.383.394.885.577 1.255.144.29.354.66.511.938.184.343.472.792.708 1.095.262.344.603.82.905 1.136.144.159.327.37.485.515.288.264.694.608.996.859.144.118.34.25.498.343.157.106.38.224.55.317.132.066.302.145.433.211.197.08.459.185.656.251.026.013.236.08.59.145.17.04.406.066.537.08.079.013.17.013.249.013.079 0 .17.013.25.013h.248s.197 0 .511-.04a5.82 5.82 0 001.154-.264l.34-.132.38-.171c.132-.067.302-.159.433-.225.092-.053.197-.119.289-.185.236-.158.498-.33.695-.475.157-.12.354-.29.498-.41.249-.224.563-.541.8-.792.183-.185.406-.462.563-.66.275-.37.63-.872.878-1.255.17-.264.38-.634.524-.911.21-.396.472-.938.656-1.347.144-.33.315-.766.459-1.096.17-.423.354-1.004.498-1.44.118-.37.262-.871.354-1.254.118-.462.249-1.07.34-1.532.08-.41.171-.964.237-1.373a21.63 21.63 0 00.196-1.611c.04-.436.079-1.017.105-1.466.04-.502.04-1.175.053-1.677.013 1.532-1.01 3.063-3.055 4.212z" fill="url(#paint4_linear)"/><defs><linearGradient id="paint0_linear" x1="-4.33" y1="35.321" x2="19.064" y2="35.321" gradientUnits="userSpaceOnUse"><stop stop-color="#FFE177"/><stop offset="1" stop-color="#FEB137"/></linearGradient><linearGradient id="paint1_linear" x1="4.675" y1="28.252" x2="16.57" y2="28.252" gradientUnits="userSpaceOnUse"><stop stop-color="#FFE177"/><stop offset="1" stop-color="#FEB137"/></linearGradient><linearGradient id="paint2_linear" x1="12.902" y1="29.078" x2="17.355" y2="29.078" gradientUnits="userSpaceOnUse"><stop stop-color="#FFE177"/><stop offset="1" stop-color="#FEB137"/></linearGradient><linearGradient id="paint3_linear" x1="5.434" y1="29.395" x2="15.528" y2="29.395" gradientUnits="userSpaceOnUse"><stop stop-color="#FFE177"/><stop offset="1" stop-color="#FEB137"/></linearGradient><linearGradient id="paint4_linear" x1="-9.925" y1="15.126" x2="20.594" y2="15.126" gradientUnits="userSpaceOnUse"><stop stop-color="#FFE177"/><stop offset="1" stop-color="#FEB137"/></linearGradient></defs></svg>