<svg width="434" height="448" fill="none" xmlns="http://www.w3.org/2000/svg"><g filter="url(#filter0_d)" fill-rule="evenodd" clip-rule="evenodd"><path d="M311.122 135.805l-47.07 27.234-47.182-27.234 46.958-27.233 47.294 27.233zm-94.252 0l-46.958 27.234-47.295-27.234 46.958-27.233 47.295 27.233z" fill="#fff"/><path d="M358.305 163.039l-46.958 27.345-47.295-27.345 47.07-27.234 47.183 27.234z" fill="#9EBFFF"/><path d="M264.052 163.039l-46.958 27.345-47.182-27.345 46.958-27.234 47.182 27.234zm-94.14 0l-46.958 27.345-47.295-27.345 46.958-27.234 47.295 27.234z" fill="#9EBFFF"/><path d="M405.599 190.384l-46.958 27.234-47.294-27.234 46.958-27.345 47.294 27.345z" fill="#fff"/><path d="M311.347 190.384l-46.958 27.346-47.295-27.346 46.958-27.345 47.295 27.345zm-94.253 0l-46.846 27.346-47.294-27.346 46.958-27.345 47.182 27.345zm-94.14 0L75.996 217.73 28.7 190.384l46.958-27.345 47.295 27.345z" fill="#fff"/><path d="M358.641 217.618l-46.958 27.345-47.295-27.233 46.958-27.346 47.295 27.234zm-94.253.112l-46.958 27.233-47.182-27.233 46.846-27.346 47.294 27.346zm-94.14 0l-46.958 27.233-47.294-27.233 46.958-27.346 47.294 27.346z" fill="#9EBFFF"/><path d="M311.683 244.963l-46.958 27.234-47.295-27.234 46.958-27.233 47.295 27.233zm-94.253 0l-46.958 27.346-47.182-27.346 46.958-27.233 47.182 27.233z" fill="#fff"/><path d="M264.724 272.197l-46.958 27.345-47.294-27.233 46.958-27.346 47.294 27.234zm-.896-163.625l-46.958 27.233-47.294-27.233 46.958-27.346 47.294 27.346z" fill="#9EBFFF"/></g><path fill-rule="evenodd" clip-rule="evenodd" d="M110.177 127.736l-29.81-16.923c-3.25-1.457-7.958-2.69-11.208-.896-3.026 1.569-7.957 4.819-10.199 6.051-1.68.897-7.508 4.371-3.81 6.389 10.647 5.827 21.182 12.215 31.94 18.155 2.018 1.121 5.044 1.457 8.182 1.233 3.138-.224 6.276-1.121 8.853-2.578 1.794-1.008 3.587-2.017 5.268-3.026 2.353-1.345 3.586-3.026 3.698-4.483 0-1.569-.896-2.913-2.914-3.922z" fill="#8EB5FF"/><path fill-rule="evenodd" clip-rule="evenodd" d="M73.306 103.528c-.448.113-1.009.225-1.57.225h-.447c-1.121-.112-2.242-.112-3.25.56-.225.112-.56.336-.673.56-.336 1.009-.224 2.578.112 3.811v.112c.449.336.897.672 1.12 1.905.45 2.241-.784 3.586-.335 6.052v.112c.448 1.905 2.353 3.586 4.37 3.698.56 0 2.578-1.008 2.13-2.129-.112-.336-.897-.448-1.12-1.457-.113-.56-.225-1.009-.113-1.569.224-1.233 1.009-2.69 1.905-5.491-3.026-1.345-2.577-4.371-2.13-6.389zm17.147 17.484c-.112.224-.224.448-.448.672 0 2.129 0 3.362.224 4.035.112.224.336.336.56.56.224.224.224.897.224 1.569 0 1.233.113 2.017.337 3.138.112.897.672 1.569 1.345 2.129 1.12 1.009 2.577 1.906 4.146 2.354 1.233.448 2.466.448 3.026-.224.785-.785.112-1.569-.56-2.354-.224-.224-.56-.56-.785-.896-.784-1.906-.56-4.595-.672-6.613.448-1.569 3.138-7.284-1.233-7.06-.56 0-1.008.112-1.457.112h.112c-1.008 0-3.698.448-4.819 2.578z" fill="#090701"/><path fill-rule="evenodd" clip-rule="evenodd" d="M123.739 98.485c-8.406 8.181-14.794 7.845-26.001 7.733-8.966-.112-14.233 1.681-22.639 3.923-2.353.336-3.586-5.156-1.793-6.388 5.044-1.906 8.966-4.82 13.449-6.388 1.569-.56 4.259-1.01 6.164-1.01 5.603-.223 8.405-.56 13.112-4.594 2.354-3.923 7.397-5.155 12.889-2.13l4.819 8.854z" fill="#090701"/><path fill-rule="evenodd" clip-rule="evenodd" d="M112.083 87.726c-15.802 5.043-4.819 19.725.785 28.579-4.707-.337-10.311 1.344-16.25 2.017-2.69.56-1.234 5.94 1.008 6.836 6.836.561 11.767.112 18.155.673 1.569.112 5.492.448 6.501 0 1.905-.673 2.801-2.13 2.689-4.595-.672-9.19-3.026-14.794-6.052-20.958.897-1.232 1.233-1.457 2.466-2.465l-5.828-6.5-3.474-3.587z" fill="#32312F"/><path fill-rule="evenodd" clip-rule="evenodd" d="M175.852 89.632l1.905-1.233c-.56-.897-1.569-.224-2.913.448a8.303 8.303 0 013.362-1.457c1.457-.224 2.465-.336 2.914-1.233.784-1.569.224-2.465-.225-2.241-.896 0-2.689.224-4.034.224-1.233-.112-2.242 0-2.802.336-1.233.673-2.353 1.345-3.586 1.793-1.233.449-2.466.785-3.923.673l.112 3.362c1.345.112 2.242 0 3.475.336.224.112.448.112.56.112.112 0 .224.112.224.112.56.224 1.233.224 1.905.112 1.233-.112 2.13-1.008 3.026-1.344z" fill="#FEC49D"/><path fill-rule="evenodd" clip-rule="evenodd" d="M168.567 86.157c0 1.345.224 3.475.449 4.82-5.38 1.344-15.13 3.025-20.734 2.465-1.457-.224-1.681 0-2.465-1.345-1.233-1.905-2.354-3.698-3.362-5.491l5.715-8.63c.336 1.12 1.905 7.173 2.354 8.293 3.25-.56 8.853-.448 12.104-.224 2.577.112 3.586.448 5.939.112z" fill="#E6E2C8"/><path fill-rule="evenodd" clip-rule="evenodd" d="M111.971 87.726c-.785 6.949 4.931 13.337 8.966 13.449 7.508-5.155 17.595-2.802 26.673-16.587 2.241-3.474 2.353-9.414-2.914-11.319-.897-.336-1.793-.56-2.69-.785l-1.569-.784c-2.241.112-4.371.224-6.5.448-.672.112-1.345.112-1.905.224-2.802.449-5.492 1.121-8.406 2.466-6.5 3.138-9.077 11.207-11.655 12.888z" fill="#F1EDD7"/><path fill-rule="evenodd" clip-rule="evenodd" d="M140.437 85.037c0 4.146-3.474 6.724-6.052 8.965-2.241 2.018-4.371 3.81-5.155 6.837.448 1.793 1.121 4.371 2.017 5.603 1.569-1.905 2.018-2.465 4.371-3.922-1.009-6.724 10.087-5.604 6.052-17.596.897-1.344 1.121-1.569.897-1.905-.337-.336-.225-.112-1.345-.336-.673-.112-1.793-.336-1.906.448-.112.56.113 1.233 1.121 1.906z" fill="#32312F"/><path fill-rule="evenodd" clip-rule="evenodd" d="M138.868 74.95c1.009-.336 2.354-.448 3.811-.784l2.801 6.724c-1.008 0-1.344 1.793-2.353 1.905-.56.112-1.233.112-1.905.112-5.268-.336-5.268-7.06-2.354-7.957z" fill="#EDB48F"/><path fill-rule="evenodd" clip-rule="evenodd" d="M141.334 82.795c.337-.112.897-.56 1.345-.896.449-.337 1.793-.897 2.018-1.121.336.448-1.681 2.914-2.13 4.37-.112-1.232-.448-1.568-1.233-2.353zm-1.569-8.181c-1.793 1.569.224 5.94 1.569 8.181-1.009.112-2.241.224-2.802.785-.896-1.681-2.577-4.371-1.793-6.949.672-1.793 2.017-2.13 3.026-2.017z" fill="#FFFCE4"/><path fill-rule="evenodd" clip-rule="evenodd" d="M147.049 84.588c-.784-.56-2.465-2.017-3.138-2.577-1.457-1.233-1.12-2.69-1.457-4.931-1.344-1.121-1.793-2.018-1.793-2.914-.112-2.242 1.233-4.483 3.026-5.604 1.569-1.009 3.25-1.233 5.043-.672 3.587 1.12 4.932 3.922 4.82 7.172 0 .224-.112.56-.112.785-.225.672-.337.672-.449 1.12-.224.897-.112 2.13-.448 3.25-.448 1.57-1.233 3.139-1.793 3.699-.449.56-.897.897-1.569.897-.561.224-1.121.448-2.13-.225z" fill="#FFCFAE"/><path fill-rule="evenodd" clip-rule="evenodd" d="M140.101 73.157c0 1.233.449 2.353 1.009 3.586 1.121 2.242 1.681 1.121 2.466-.336.112.56.224 1.12.56 1.345.224.112.672.336.672-.336.224-2.242 1.345-2.354 1.121-3.699-.224-1.008-.112-1.457.224-1.793.673.112 1.121.897 2.017 1.345.785.448 5.156.784 5.492-.224.784-2.354-.672-4.595-2.802-5.94-5.379-3.25-10.871.785-10.759 6.052z" fill="#471F2C"/><path fill-rule="evenodd" clip-rule="evenodd" d="M151.084 82.235c-.112 0-.224 0-.336.112h-.56c-.337.112-.449.336-.897.448-.112 0-.112.112 0 .112.224.112 1.233.112 1.569 0 .224-.112.224-.224.336-.448.112 0 .224-.224-.112-.224z" fill="#fff"/><path fill-rule="evenodd" clip-rule="evenodd" d="M149.403 77.528c-.784.224-1.345.224-2.241-.336.896.784 1.569.784 2.241.336zm2.242-.336c.784 0 .896-.112 1.456-.449-.448.449-.784.56-1.456.56v-.111zm-.225.784c.113.785.113 1.12.449 1.681.56.897.224 1.233-.673 1.345 1.009-.224.897-.56.561-1.345-.337-.56-.337-.896-.337-1.68z" fill="#AB6F48"/><path fill-rule="evenodd" clip-rule="evenodd" d="M152.765 77.08c-.112.336-.448.448-.672.224.224 0 .448-.112.672-.225zm-3.698.56c-.112.336-.561.448-.785.112.336 0 .561 0 .785-.112z" fill="#AB6F48"/><path fill-rule="evenodd" clip-rule="evenodd" d="M143.015 75.286c-1.345-.672-1.569.897-1.569 1.906 0 .672.56.784.672 1.344.112.673.561 1.121 1.009 1.121.896.112.56-1.233.56-1.793.336-.785.224-2.13-.672-2.578zm20.397 19.613l3.586 1.233c1.009.56 1.345.784.449 2.353-.561.785-.897 1.12-2.242.673-1.457-.449-2.69-.337-3.25-.337-.672.112-1.121.449-1.457.897-.897.897-1.457 1.905-3.81 1.009-1.233-.449-2.13-.449-3.475-.673l.112-3.362c2.914.336 5.044-.672 7.621-1.793 1.345-.56 1.121-.336 2.466 0z" fill="#FFCFAE"/><path fill-rule="evenodd" clip-rule="evenodd" d="M154.67 96.02c-.112 1.345 0 3.474.112 4.819-5.491.896-15.802 2.129-21.293 1.008-1.457-.336-2.578-1.793-3.362-3.138-3.026-4.707-6.052-9.862-7.621-15.017-1.233-3.923-.561-7.957 4.483-8.294 1.569-.112 3.362.56 4.37 2.13 2.802 4.258 3.811 13.336 5.604 17.035 3.25-.225 8.742.224 11.992.784 2.353.449 3.362.897 5.715.673z" fill="#FFFCE4"/><g filter="url(#filter1_d)"><path opacity=".5" fill-rule="evenodd" clip-rule="evenodd" d="M175.403 133.34c17.707 0 31.94 8.517 31.94 19.164 0 10.535-14.345 19.164-31.94 19.164-17.707 0-31.941-8.517-31.941-19.164 0-10.535 14.234-19.164 31.941-19.164z" fill="#E8E8E8"/><path d="M175.066 166.065c15.412 0 27.905-7.326 27.905-16.363 0-9.037-12.493-16.362-27.905-16.362s-27.906 7.325-27.906 16.362c0 9.037 12.494 16.363 27.906 16.363z" fill="#626262"/><path d="M175.065 161.47c12.998 0 23.535-5.821 23.535-13.001s-10.537-13-23.535-13-23.535 5.82-23.535 13 10.537 13.001 23.535 13.001z" fill="#434343"/><path fill-rule="evenodd" clip-rule="evenodd" d="M175.066 127.176c14.009 0 25.44 6.836 25.44 15.241 0 8.406-11.431 15.242-25.44 15.242-14.009 0-25.441-6.836-25.441-15.242-.112-8.405 11.32-15.241 25.441-15.241z" fill="#747474"/><path fill-rule="evenodd" clip-rule="evenodd" d="M175.066 128.52c10.871 0 19.724 5.156 19.724 11.656 0 6.388-8.853 11.655-19.724 11.655s-19.725-5.155-19.725-11.655c-.112-6.5 8.742-11.656 19.725-11.656z" fill="#434343"/><path fill-rule="evenodd" clip-rule="evenodd" d="M175.065 122.357c10.199 0 18.38 5.379 18.38 11.991s-8.293 11.992-18.38 11.992c-10.198 0-18.379-5.38-18.379-11.992-.112-6.612 8.181-11.991 18.379-11.991z" fill="#3C3C3C"/><path fill-rule="evenodd" clip-rule="evenodd" d="M175.065 122.357c10.199 0 18.38 5.043 18.38 11.319 0 6.276-8.293 11.319-18.38 11.319-10.198 0-18.379-5.043-18.379-11.319-.112-6.276 8.181-11.319 18.379-11.319z" fill="#747474"/><path fill-rule="evenodd" clip-rule="evenodd" d="M188.739 128.52c-4.595-7.508-5.604-11.767-5.38-20.621 0-12.664-16.699-13.224-16.699-.112-.112 9.638-.672 13.449-5.939 21.406-.673 1.121-1.009 2.241-1.009 3.362v.336c.224 4.819 7.06 8.63 15.354 8.63 8.517 0 15.354-4.035 15.354-8.854-.112-1.569-.673-2.914-1.681-4.147z" fill="#626262"/><path fill-rule="evenodd" clip-rule="evenodd" d="M183.359 109.244v-1.345c0-12.664-16.699-13.224-16.699-.112v1.233c.897 3.362 14.794 3.81 16.699.224z" fill="#3C3C3C"/><path fill-rule="evenodd" clip-rule="evenodd" d="M190.756 138.943c-.112-.112-4.371 2.354-9.078 3.586-5.043 1.345-10.311 1.345-10.311 1.457.112.785 5.604 1.009 10.759-.336 5.043-1.345 9.078-4.034 8.63-4.707z" fill="#868686"/><path fill-rule="evenodd" clip-rule="evenodd" d="M171.928 141.297c.112-1.121 1.12-7.173 5.94-8.854 5.379-1.905 8.965 2.129 10.758 4.259-4.034 4.483-12.552 5.155-16.698 4.595z" fill="#747474"/><path fill-rule="evenodd" clip-rule="evenodd" d="M175.962 161.582c2.466-2.466 11.32-6.164 17.147-4.707-5.939 4.371-16.25 4.707-17.147 4.707z" fill="#626262"/><path fill-rule="evenodd" clip-rule="evenodd" d="M196.135 158.78c-.112-.112-4.931 2.69-10.198 4.147-5.604 1.456-11.656 1.569-11.656 1.681.112.896 6.276 1.12 12.104-.449 5.604-1.569 10.199-4.595 9.75-5.379zm-1.905-8.069c-.112-.112-4.595 2.465-9.302 3.698-5.155 1.345-10.647 1.457-10.647 1.569.112.785 5.716 1.009 11.095-.448 5.044-1.345 9.302-4.147 8.854-4.819z" fill="#868686"/><path fill-rule="evenodd" clip-rule="evenodd" d="M172.712 151.719c1.457-3.922 4.931-5.827 8.854-6.724 3.25-.784 7.396-.784 9.974 1.681-7.285 6.164-18.828 5.043-18.828 5.043z" fill="#626262"/><path fill-rule="evenodd" clip-rule="evenodd" d="M175.066 93.554c7.621 0 13.673 3.698 13.673 8.293 0 4.595-6.164 8.294-13.673 8.294-7.621 0-13.673-3.699-13.673-8.294-.112-4.595 6.052-8.293 13.673-8.293z" fill="#434343"/><path fill-rule="evenodd" clip-rule="evenodd" d="M175.066 93.554c7.621 0 13.673 3.362 13.673 7.397 0 4.034-6.164 7.397-13.673 7.397-7.621 0-13.673-3.363-13.673-7.397-.112-4.035 6.052-7.397 13.673-7.397z" fill="#3C3C3C"/><path fill-rule="evenodd" clip-rule="evenodd" d="M175.066 83.916c10.422 0 18.828 5.155 18.828 11.543 0 6.388-8.406 11.544-18.828 11.544-10.423 0-18.829-5.156-18.829-11.544-.112-6.388 8.406-11.543 18.829-11.543z" fill="#626262"/><path fill-rule="evenodd" clip-rule="evenodd" d="M175.066 81.562c7.733 0 14.009 4.035 14.009 8.966 0 4.931-6.276 8.966-14.009 8.966-7.733 0-14.009-4.035-14.009-8.966 0-4.931 6.276-8.966 14.009-8.966z" fill="#3C3C3C"/><path fill-rule="evenodd" clip-rule="evenodd" d="M175.066 81.562c7.508 0 13.56 3.699 13.56 8.294 0 4.595-6.052 8.293-13.56 8.293-7.509 0-13.561-3.698-13.561-8.293 0-4.595 6.052-8.294 13.561-8.294z" fill="#626262"/><path fill-rule="evenodd" clip-rule="evenodd" d="M175.402 96.916c2.466.337 8.181-.896 9.638-2.802.224-.336.224-1.12-.784-.672-3.138 1.345-5.716 1.793-8.966 2.466-.896.112-.672.896.112 1.008zm12.776 5.38c.897-.673 1.569-1.345 1.345-1.569-.112-.112-2.578 1.12-3.474 1.457-2.466.896-5.604 1.681-8.181 2.129-1.121.224-3.811.448-3.811.784 0 .225.785.337 1.793.449 4.147.336 9.078-.785 12.328-3.25zm-1.906 3.922c-.112-.112-3.362 1.681-6.836 2.354-3.698.784-7.733.672-7.733.784 0 .561 4.035.897 7.957 0 3.811-.784 6.837-2.577 6.612-3.138z" fill="#868686"/><path fill-rule="evenodd" clip-rule="evenodd" d="M181.005 90.304c2.802-9.75 8.63-16.587 9.078-17.26 1.457-2.24-31.38-1.904-30.26 0 .449.673 6.276 7.51 9.078 17.26 3.811 2.914 9.414 2.353 12.104 0z" fill="#3C3C3C"/><path d="M175.065 78.2c9.656 0 17.483-4.666 17.483-10.422 0-5.757-7.827-10.423-17.483-10.423-9.655 0-17.483 4.666-17.483 10.423 0 5.756 7.828 10.422 17.483 10.422z" fill="#626262"/><path fill-rule="evenodd" clip-rule="evenodd" d="M175.065 61.838c-2.914 4.483-6.612 9.638-10.423 13.112 7.957 4.259 32.389 2.13 25.552-11.655-4.931-.224-10.422-.897-15.129-1.457z" fill="#747474"/><path fill-rule="evenodd" clip-rule="evenodd" d="M175.177 62.062c-.112 2.914 0 8.854-.224 13 5.492.112 14.233-3.25 13.897-8.405-5.379-2.017-10.199-3.25-13.673-4.595z" fill="#868686"/><path fill-rule="evenodd" clip-rule="evenodd" d="M175.065 61.726c-6.724 1.008-10.423 1.457-16.475 3.922 4.035-5.603 11.095-8.405 20.846-7.172-1.569.784-3.026 1.905-4.371 3.25z" fill="#434343"/><path fill-rule="evenodd" clip-rule="evenodd" d="M174.954 64.527c-4.595 0-8.181-3.138-8.181-6.948 0-3.586 2.129-7.06 8.293-11.543 5.156 4.034 8.294 7.508 8.294 11.543-.112 3.922-3.811 6.948-8.406 6.948z" fill="#626262"/><path fill-rule="evenodd" clip-rule="evenodd" d="M174.954 64.527c-4.595 0-8.182-3.138-8.182-6.948v-.897c.449 3.026 3.811 5.38 8.182 5.38s7.845-2.354 8.293-5.492v1.009c0 3.922-3.698 6.948-8.293 6.948z" fill="#3C3C3C"/><path fill-rule="evenodd" clip-rule="evenodd" d="M175.178 46.484v6.164c0 5.715 2.802 6.052 4.034 4.707 1.009-1.12.785-3.362-.896-6.052l-3.138-4.82z" fill="#868686"/></g><g opacity=".5" filter="url(#filter2_d)"><path fill-rule="evenodd" clip-rule="evenodd" d="M266.405 191.729c15.018 0 27.234 7.285 27.234 16.25 0 8.966-12.216 16.251-27.234 16.251-15.017 0-27.233-7.285-27.233-16.251 0-8.965 12.216-16.25 27.233-16.25z" fill="#EFEFEF"/></g><path fill-rule="evenodd" clip-rule="evenodd" d="M266.405 190.72c13.449 0 24.32 6.388 24.32 14.234 0 7.845-10.871 14.233-24.32 14.233s-24.32-6.388-24.32-14.233c0-7.846 10.871-14.234 24.32-14.234z" fill="#636363"/><path d="M266.405 215.376c11.327 0 20.509-5.118 20.509-11.431 0-6.313-9.182-11.431-20.509-11.431s-20.509 5.118-20.509 11.431c0 6.313 9.182 11.431 20.509 11.431z" fill="#4B4B4B"/><path fill-rule="evenodd" clip-rule="evenodd" d="M266.405 185.341c12.328 0 22.19 5.94 22.19 13.337 0 7.284-9.974 13.336-22.19 13.336-12.328 0-22.19-5.94-22.19-13.336 0-7.397 9.862-13.337 22.19-13.337z" fill="#6C6C6C"/><path d="M266.405 205.962c8.727 0 15.802-4.164 15.802-9.302 0-5.137-7.075-9.302-15.802-9.302s-15.802 4.165-15.802 9.302c0 5.138 7.075 9.302 15.802 9.302z" fill="#4B4B4B"/><path fill-rule="evenodd" clip-rule="evenodd" d="M266.405 181.082c8.293 0 15.13 4.371 15.13 9.863 0 5.491-6.725 9.862-15.13 9.862-8.405 0-15.13-4.371-15.13-9.862 0-5.38 6.837-9.863 15.13-9.863z" fill="#353535"/><path fill-rule="evenodd" clip-rule="evenodd" d="M266.405 181.082c8.293 0 15.13 4.147 15.13 9.302 0 5.155-6.725 9.302-15.13 9.302-8.405 0-15.13-4.147-15.13-9.302 0-5.155 6.837-9.302 15.13-9.302z" fill="#6C6C6C"/><path fill-rule="evenodd" clip-rule="evenodd" d="M277.612 186.125c-3.81-6.163-4.595-9.638-4.371-16.922 0-10.423-13.672-10.871-13.672-.112 0 7.957-.561 11.095-4.931 17.595-.561.896-.897 1.793-.785 2.69v.336c.224 3.922 5.716 7.06 12.552 7.06 6.949 0 12.552-3.25 12.552-7.284 0-1.233-.448-2.354-1.345-3.363z" fill="#636363"/><path fill-rule="evenodd" clip-rule="evenodd" d="M273.353 174.134c-.112-1.457-.112-3.026-.112-4.931 0-10.423-13.672-10.871-13.672-.112 0 1.905 0 3.474-.112 4.931 2.129 2.129 10.871 2.129 13.896.112z" fill="#353535"/><path d="M266.405 174.918c6.066 0 10.983-2.96 10.983-6.612s-4.917-6.612-10.983-6.612c-6.066 0-10.983 2.96-10.983 6.612s4.917 6.612 10.983 6.612z" fill="#4B4B4B"/><path fill-rule="evenodd" clip-rule="evenodd" d="M266.405 161.694c6.052 0 10.983 2.689 10.983 5.94 0 3.25-4.931 5.939-10.983 5.939-6.052 0-10.983-2.689-10.983-5.939 0-3.251 4.931-5.94 10.983-5.94z" fill="#353535"/><path fill-rule="evenodd" clip-rule="evenodd" d="M266.405 153.961c8.293 0 15.13 4.147 15.13 9.302 0 5.155-6.725 9.302-15.13 9.302-8.405 0-15.13-4.147-15.13-9.302 0-5.155 6.837-9.302 15.13-9.302z" fill="#636363"/><path fill-rule="evenodd" clip-rule="evenodd" d="M266.405 153.176c6.164 0 11.208 3.25 11.208 7.173 0 3.922-5.044 7.173-11.208 7.173-6.164 0-11.207-3.251-11.207-7.173 0-4.035 5.043-7.173 11.207-7.173z" fill="#353535"/><path fill-rule="evenodd" clip-rule="evenodd" d="M266.405 153.176c5.94 0 10.871 2.914 10.871 6.613 0 3.698-4.819 6.612-10.871 6.612-5.94 0-10.871-2.914-10.871-6.612 0-3.699 4.931-6.613 10.871-6.613z" fill="#636363"/><path fill-rule="evenodd" clip-rule="evenodd" d="M276.94 168.642c.672-.56 1.233-1.12 1.009-1.345 0-.112-2.018 1.009-2.802 1.233-1.906.785-4.371 1.457-6.5 1.905-.897.225-3.026.449-3.026.673 0 .112.672.224 1.457.336 3.362.224 7.284-.672 9.862-2.802zm2.465 26.113c-.112-.112-3.586 2.017-7.396 2.914-4.147 1.121-8.518 1.121-8.518 1.233 0 .672 4.595.784 8.742-.337 4.146-1.12 7.397-3.362 7.172-3.81z" fill="gray"/><path fill-rule="evenodd" clip-rule="evenodd" d="M263.827 196.66c.112-1.008.897-5.828 4.931-7.284 4.483-1.569 7.397 1.793 8.742 3.474-3.25 3.698-10.199 4.259-13.673 3.81z" fill="#6C6C6C"/><path fill-rule="evenodd" clip-rule="evenodd" d="M267.189 215.376c2.13-2.241 9.863-5.379 15.018-4.146-5.155 3.81-14.233 4.146-15.018 4.146z" fill="#636363"/><path fill-rule="evenodd" clip-rule="evenodd" d="M284.785 212.911c-.112-.112-4.371 2.353-8.854 3.586-4.931 1.345-10.198 1.345-10.198 1.457.112.784 5.491 1.009 10.535-.448 4.931-1.233 8.965-3.923 8.517-4.595zm-9.414-41.243c0-.112-2.242 1.121-4.707 1.793-2.578.673-5.268.785-5.268.785 0 .336 2.802.448 5.492-.336 2.578-.561 4.707-1.906 4.483-2.242zm7.845 34.182c-.112-.112-3.922 2.13-8.181 3.25-4.483 1.233-9.302 1.233-9.302 1.345.112.673 5.043.897 9.638-.336 4.483-1.233 8.181-3.586 7.845-4.259z" fill="gray"/><path fill-rule="evenodd" clip-rule="evenodd" d="M264.5 205.85c1.121-3.138 3.923-4.707 7.061-5.379 2.689-.673 5.939-.673 7.957 1.345-5.716 5.043-15.018 4.034-15.018 4.034z" fill="#636363"/><path fill-rule="evenodd" clip-rule="evenodd" d="M266.404 142.193c9.862 0 17.932 4.819 17.932 10.647s-8.07 10.647-17.932 10.647c-9.862 0-17.931-4.819-17.931-10.647s8.069-10.647 17.931-10.647z" fill="gray"/><path fill-rule="evenodd" clip-rule="evenodd" d="M275.819 145.443c-3.25-1.905-7.397-2.465-11.095-2.129-2.353.112-5.267.785-7.285 1.793-2.129 1.121-4.258 3.25-4.258 5.94v2.578c0-3.475 3.81-5.716 6.612-6.613 2.017-.672 3.81-.896 5.828-1.008 3.25-.112 7.172.56 10.086 2.241 1.905 1.121 3.138 2.578 3.698 4.035.113.448.225 1.008.225 1.457v-2.578c0-2.017-1.233-4.259-3.811-5.716z" fill="#4B4B4B"/><path fill-rule="evenodd" clip-rule="evenodd" d="M285.008 151.159c0 2.578-2.017 4.371-3.922 5.94-6.613 5.267-20.285 5.155-27.458 1.121-3.698-2.13-5.828-4.371-5.828-7.173v2.578c0 2.801 1.793 5.603 5.492 7.62 3.922 2.242 8.741 3.139 13.224 3.139 5.268 0 11.544-1.345 15.466-4.82.673-.672 1.345-1.344 1.793-2.129.673-1.121 1.121-2.241 1.233-3.586v-2.69z" fill="#4B4B4B"/><path fill-rule="evenodd" clip-rule="evenodd" d="M275.819 156.539c-5.156 3.025-13.561 3.025-18.716 0-5.156-3.026-5.268-7.846-.112-10.871 5.155-3.026 13.56-3.026 18.716 0 5.267 3.025 5.267 7.845.112 10.871zm3.698-13.113c-7.285-4.259-19.052-4.259-26.337 0-7.284 4.259-7.172 10.983.112 15.242 7.285 4.259 19.053 4.259 26.337 0 7.173-4.147 7.173-10.983-.112-15.242z" fill="#636363"/><path fill-rule="evenodd" clip-rule="evenodd" d="M270.775 143.874v-5.155c-2.914-.897-5.94-1.009-8.854 0v5.155c2.914-.448 6.052-.448 8.854 0z" fill="#4B4B4B"/><path fill-rule="evenodd" clip-rule="evenodd" d="M278.396 142.642v5.155l3.923-2.242V140.4l-2.466 1.009-1.457 1.233z" fill="#636363"/><path fill-rule="evenodd" clip-rule="evenodd" d="M272.12 152.84v5.268l4.035 2.241.336-5.155-4.371-2.354zm0-13.785v5.156c2.354.672 4.707 1.793 6.276 3.698v-5.155c-1.233-2.018-3.81-3.25-6.276-3.699zm6.724 4.371v5.155c.561.785.785 1.681.785 2.578v-5.155c0-.897-.224-1.793-.785-2.578z" fill="#4B4B4B"/><path fill-rule="evenodd" clip-rule="evenodd" d="M285.009 146.004c0 .784-.225 1.681-.561 2.465v5.156c.336-.785.561-1.681.561-2.466v-5.155zm-6.052 2.577v5.156h5.491v-5.156h-5.491z" fill="#353535"/><path fill-rule="evenodd" clip-rule="evenodd" d="M276.155 155.194v5.155c2.017-.673 4.483-1.905 6.052-3.474l.112-.112v-5.156c-1.793 1.121-4.147 1.793-6.164 3.587zM250.49 140.4v5.155l3.923 2.242.224-5.267-4.147-2.13z" fill="#4B4B4B"/><path fill-rule="evenodd" clip-rule="evenodd" d="M260.69 144.211v-5.156c-2.466.336-5.156 1.233-6.276 3.587v5.155c1.457-1.793 4.034-3.026 6.276-3.586z" fill="#636363"/><path fill-rule="evenodd" clip-rule="evenodd" d="M253.852 148.581v-5.155c-.448.785-.784 1.681-.784 2.466v5.155c.112-.785.224-1.681.784-2.466z" fill="#353535"/><path fill-rule="evenodd" clip-rule="evenodd" d="M247.8 145.892v5.155c0 .672.112 1.345.337 2.017.112.224.112.449.224.673l.336-5.268c-.448-.784-.897-1.681-.897-2.577z" fill="#4B4B4B"/><path fill-rule="evenodd" clip-rule="evenodd" d="M248.36 148.581v5.156h5.604v-5.156h-5.604zm8.294 6.388l.112 5.38 3.923-2.242v-5.155l-4.035 2.017z" fill="#636363"/><path fill-rule="evenodd" clip-rule="evenodd" d="M256.766 155.194c-2.017-1.121-4.371-2.13-6.276-3.587v5.156c1.681 1.569 4.035 2.801 6.276 3.586v-5.155zm14.121 1.232c-2.801-.448-5.939-.56-8.853 0v5.156c2.914.448 5.94.448 8.853 0v-5.156z" fill="#4B4B4B"/><path fill-rule="evenodd" clip-rule="evenodd" d="M270.775 138.719v-3.25a29.332 29.332 0 00-8.854 0v3.25c2.914-.56 6.052-.56 8.854 0zm7.621 3.923l3.923-2.242c-.785-.672-1.681-1.457-2.802-2.017-1.121-.673-2.242-1.121-3.474-1.569l-3.923 2.241c1.345.336 2.578.897 3.698 1.457 1.009.673 1.906 1.345 2.578 2.13zm6.052.784h-5.604c1.009 1.681 1.009 3.474 0 5.155h5.604c.784-1.681.784-3.474 0-5.155zm-8.63 7.957c-1.12.673-2.353 1.121-3.698 1.457l3.923 2.242a25.114 25.114 0 003.474-1.569c1.121-.673 2.017-1.345 2.69-2.018l-3.923-2.241c-.56.784-1.345 1.457-2.466 2.129zm-18.828-10.871c1.121-.672 2.354-1.121 3.699-1.457l-3.923-2.241a24.775 24.775 0 00-3.474 1.569c-1.121.672-2.018 1.345-2.69 2.017l3.923 2.242c.56-.785 1.344-1.457 2.465-2.13zm-3.137 2.914h-5.604a6.843 6.843 0 000 5.155h5.604c-.897-1.681-.897-3.474 0-5.155zm.672 5.828l-3.923 2.241c.785.673 1.681 1.457 2.802 2.018 1.121.672 2.241 1.12 3.474 1.569l3.923-2.242c-1.345-.336-2.578-.896-3.699-1.457-1.12-.672-2.017-1.345-2.577-2.129zm7.509 3.922v3.25c2.914.449 5.94.449 8.853 0v-3.25a23.495 23.495 0 01-8.853 0z" fill="#6C6C6C"/><path fill-rule="evenodd" clip-rule="evenodd" d="M266.517 165.84c1.569.337 5.267-.112 6.276-1.232.224-.225.224-.673-.448-.449-2.13.673-3.699.785-5.828 1.009-.56.112-.448.56 0 .672z" fill="gray"/><path opacity=".5" fill-rule="evenodd" clip-rule="evenodd" d="M354.157 251.127l-32.501-18.492c-3.586-1.569-8.629-2.914-12.215-1.008-3.25 1.681-8.742 5.267-11.095 6.612-1.794 1.009-8.182 4.819-4.147 6.948 11.543 6.276 22.975 13.337 34.742 19.725 2.242 1.233 5.492 1.681 8.854 1.345 3.362-.336 6.836-1.233 9.638-2.914 1.905-1.121 3.923-2.241 5.716-3.362 2.577-1.457 3.922-3.25 4.034-4.819.224-1.569-.784-3.026-3.026-4.035z" fill="#8EB5FF"/><path fill-rule="evenodd" clip-rule="evenodd" d="M326.812 223.894c3.138 6.5 7.733 11.319 9.414 18.38.336 1.344 1.793 5.379 2.242 6.724.224.784.224 1.345.448 1.681.112.112.224.224.448.224.112-1.457 1.905-10.759 1.457-11.207-1.009-1.121-1.345-2.242-1.793-3.138-1.793-4.259-1.569-9.302-3.474-12.888-.561-1.009-1.233-2.018-2.018-2.914-1.905-2.354-2.801-2.914-3.586-5.716-1.121-4.035-1.457-10.199-4.371-14.793.785-4.035-1.008-8.294-4.707-10.423-1.681-1.009-3.474-1.345-5.043-3.026l-5.267 2.465c-.561 4.259-.224 7.733 2.465 11.32 2.018 4.595 3.138 7.172 5.716 10.871.784 1.12 3.474 5.267 4.035 6.052.896 1.569 2.913 4.707 4.034 6.388z" fill="#FEC49D"/><path fill-rule="evenodd" clip-rule="evenodd" d="M305.63 194.419c.336 2.69.896 2.914.784 5.603-2.129 4.595-3.25 7.509-4.37 11.432-.561 2.017-2.242 5.379-1.906 8.181.785 3.026 3.923 3.698 6.164 2.354 1.121-3.811 8.181-8.294 10.199-14.458.784-1.233 2.129-1.905 3.138-3.25 1.681-2.241 1.905-5.155 1.233-7.172-1.345-3.699-5.604-6.052-9.302-7.621-1.457-.337-4.483 3.922-5.94 4.931z" fill="#FEC49D"/><path fill-rule="evenodd" clip-rule="evenodd" d="M313.251 241.377c.112.784-.112 1.905-.336 2.914-.112.784-.112 1.457-.336 2.241l.896-.112 2.466-3.698c1.569 1.569 1.681-3.699 1.681-4.371-2.578-3.138-3.25-10.871-6.164-15.354-1.793-2.69-3.81-4.146-4.595-5.603-1.793-2.466-6.164-1.009-6.724 1.457-.449 1.569 1.793 4.258 2.689 5.267 2.802 4.483 10.087 12.104 10.423 17.259z" fill="#FEC49D"/><path fill-rule="evenodd" clip-rule="evenodd" d="M306.19 172.789c1.906 2.802.337 7.397-.224 7.285-1.569-1.009-3.026-2.69-3.81-3.587 2.353-.112 2.129-3.362 4.034-3.698z" fill="#D6E0E8"/><path fill-rule="evenodd" clip-rule="evenodd" d="M284.336 155.866c-.112-.112-.112-.224-.224-.448-.784-1.009-1.008-1.457-1.121-1.905 0-.337-.112-.673-.224-1.233 0-.112 0-.224-.112-.336-.224-1.009-1.008-3.811.224-4.371.112-.112.225-.112.449-.112.448 0 .336.112 1.345 1.12 1.008 1.009 1.681 1.681 1.905 2.578.112.56-.224 3.138.56 4.371l-1.905.224.224.448-.784.897s-.113-.785-.337-1.233z" fill="#FEC49D"/><path fill-rule="evenodd" clip-rule="evenodd" d="M292.966 167.634l-5.604-12.328c-1.009-.897-3.138-.112-3.138 1.008l3.25 9.527c.448 1.12 1.345 3.81 1.793 4.482.337.449.673.673 1.009.785.336.224.785.448 1.569.896 3.026 1.457 10.086 5.268 12.328 5.268 1.121 0 2.465-.336 2.69-1.905.224-1.906-.673-3.026-1.569-3.811-2.578-2.465-7.957-2.465-12.328-3.922z" fill="#EB3A8E"/><path fill-rule="evenodd" clip-rule="evenodd" d="M304.061 170.099c1.569.785 2.353 1.457 3.698 3.138 2.242 3.026 4.259 8.518 6.5 11.656 1.121 1.569 2.13 2.577 2.69 3.138-.112.672-4.931 4.258-10.647 7.172-.672-.672-1.345-2.017-2.465-3.026-2.242-1.905-4.932-4.819-6.725-6.051-3.586-2.69-6.052-4.259-4.931-8.966.56-2.69 3.698-3.699 6.837-5.716 1.793-1.009 4.034-1.905 5.043-1.345z" fill="#CF2576"/><path fill-rule="evenodd" clip-rule="evenodd" d="M278.733 161.918c0-.112-.112-.785-.112-1.233l-.112-.448c-.561-1.009-.673-1.457-.673-1.905v-1.569c0-1.009-.224-3.923 1.121-4.371.112 0 .224-.112.448-.112.449 0 .336.112 1.121 1.121.784 1.008 1.345 1.793 1.345 2.577 0 .561-.785 3.026-.336 4.371l-1.906.112c.112.224.112.448.112.448l-1.008 1.009z" fill="#FFCFAE"/><path fill-rule="evenodd" clip-rule="evenodd" d="M317.51 238.127c-1.457.112-2.242 1.681-2.914 3.138a207.336 207.336 0 00-1.681 4.595c-.112.336-.224.56-.56.56-.897 0-1.569-.112-1.794.112-.112.112-.112.449.112.897.337.672.673 1.233 1.121 1.569.448.336 1.009.448 1.457.448.673 0 1.345-.224 1.793-.336.785-.224 1.569-.224 1.569-1.009 0-1.457.224-2.017.785-3.586.112.448.224 1.009.224 1.457l.336 4.034.336.225.225-.112c0-1.906-.225-5.156.448-6.837.224-.672.448-1.121.56-1.457.112-.56-.112-1.233-.336-1.681-.336-.672-1.233-1.233-1.681-2.017z" fill="#EB3A8E"/><path fill-rule="evenodd" clip-rule="evenodd" d="M311.794 248.998c.448.336 1.009.448 1.457.448.672 0 1.345-.224 1.793-.336.785-.224 1.569-.224 1.569-1.009 0-1.457.224-2.017.785-3.586a.617.617 0 00-.337-.56c-.336-.225-.896-.112-1.12 0-.337.336-.673 1.008-.897 1.457-.56 1.793-.56 4.931-3.25 3.586z" fill="#090701"/><path fill-rule="evenodd" clip-rule="evenodd" d="M337.122 243.17c.337 1.905 1.457 4.819 1.569 6.5 0 .449-.672 1.121-.56 1.345.448.56 1.345.897 1.793.897.897 0 3.25-2.018 4.147-2.578l.448.336.56-.448c-.448-1.009-2.129-3.923-2.465-5.043-.448-1.345-.448-2.802-.673-3.25-.224-.449-.672-.785-1.905-1.793-.784-.561-1.569-.897-2.017-.673-1.009.673-1.233 3.026-.897 4.707z" fill="#EB3A8E"/><path fill-rule="evenodd" clip-rule="evenodd" d="M339.924 251.912c1.009-.112 3.25-2.018 4.035-2.578l.224.112c-.672-1.121-1.569-2.802-2.69-3.922-.56-.561-1.12-1.009-1.793-1.121-.56-.112-.448.224-.336.672.448 1.121.784 2.13 1.009 2.914.336 1.457.448 3.026-.449 3.923z" fill="#090701"/><path fill-rule="evenodd" clip-rule="evenodd" d="M305.63 194.419c.336 2.69.896 2.914.784 5.603-2.129 4.595-4.146 9.751-5.491 14.682 9.75 10.871 24.432-5.604 28.914 0-.112-1.345-.448-2.578-.672-3.923-.336-1.793-3.923-15.466-4.483-16.698a8.846 8.846 0 00-3.81-4.035c-1.681-1.009-3.475-1.345-5.044-3.026l-5.267 2.466v.448c-1.681.897-3.698 3.698-4.931 4.483z" fill="#CF2576"/><path fill-rule="evenodd" clip-rule="evenodd" d="M301.035 172.004c.56.673-2.242 5.044-3.586 5.492-1.569-1.569-2.914-2.914-4.819-3.923-.449.897-1.233 2.242-1.569 2.354-.337.224-2.578-1.457-3.475-2.802-.56-.896-.56-1.681-.672-2.017-.561-.785-1.121-.785-1.793-2.242-1.681-3.362 1.457-8.965 6.5-8.853 2.914.112 4.707 2.129 5.491 4.483.561 1.457.225 3.138.337 4.258.224 1.681 2.129 2.466 3.586 3.25z" fill="#FEC49D"/><path fill-rule="evenodd" clip-rule="evenodd" d="M291.173 175.927c.336.112 1.681-1.121 2.129-1.905 1.121.896 2.466 1.905 4.035 3.25-.897-1.905-1.793-3.362.784-7.061-.336-.448-.56-.896-.56-1.233-.112-1.12.224-2.801-.336-4.258-1.905-1.233-4.707 4.819-6.052 11.207z" fill="#EDB48F"/><path fill-rule="evenodd" clip-rule="evenodd" d="M292.63 172.677c-.113-1.457-1.457-2.466-1.906-1.681-.112.336-1.681.448-2.801.224-2.354-.56-4.932-2.354-4.595-4.707.224-2.017 1.12-4.147 2.689-5.492 2.13-1.681 3.699-2.577 6.837-2.241 1.457.224 2.577.784 3.698 1.457 2.129 1.345 3.923 5.716 6.052 6.276 5.267 1.457 10.423 1.345 10.535 9.302.112 4.259 1.232 5.94 6.164 6.388-4.371 6.948-11.432 3.138-12.44.224-2.466-7.509-5.156-3.474-11.208-5.828-2.465-.784-2.913-2.914-3.025-3.922z" fill="#471F2C"/><path fill-rule="evenodd" clip-rule="evenodd" d="M290.949 170.996c-.449-.336-.449-.561-.225-.673.225-.112.673 0 1.121.337.785.448 1.009 1.569.112 1.793.561-.337 0-1.009-.448-1.345-.336-.224-.56-.336-.56-.112z" fill="#FFCFAE"/><path fill-rule="evenodd" clip-rule="evenodd" d="M291.285 170.996c.112.448.112.672.224.672s.224 0 .336-.224c-.112-.224-.336-.448-.56-.448z" fill="#EDB48F"/><path fill-rule="evenodd" clip-rule="evenodd" d="M284.897 172.565l-3.138-12.44c-.785-1.009-3.138-.224-3.363.896l1.345 9.639c.224 1.232.673 3.81 1.009 4.482.224.449.56.673.897.785.224.224.672.56 1.344.897 2.802 1.569 9.078 5.603 11.208 5.715 1.12.112 2.577-.336 3.026-1.793.672-1.905-.113-3.026-.785-3.81-2.129-2.466-7.509-2.802-11.543-4.371z" fill="#CF2576"/><g opacity=".5" filter="url(#filter3_d)"><path d="M174.955 267.714c15.659 0 28.354-7.577 28.354-16.923 0-9.346-12.695-16.923-28.354-16.923-15.66 0-28.354 7.577-28.354 16.923 0 9.346 12.694 16.923 28.354 16.923z" fill="#D3D3D3"/></g><path d="M174.955 263.343c14.174 0 25.664-6.724 25.664-15.018s-11.49-15.017-25.664-15.017c-14.174 0-25.664 6.723-25.664 15.017s11.49 15.018 25.664 15.018z" fill="#646464"/><path fill-rule="evenodd" clip-rule="evenodd" d="M174.955 235.213c11.992 0 21.63 5.379 21.63 11.992 0 6.612-9.75 11.991-21.63 11.991-11.992 0-21.63-5.379-21.63-11.991 0-6.613 9.638-11.992 21.63-11.992z" fill="#515151"/><path d="M174.955 255.61c12.936 0 23.423-6.272 23.423-14.009s-10.487-14.009-23.423-14.009c-12.936 0-23.423 6.272-23.423 14.009s10.487 14.009 23.423 14.009z" fill="#727272"/><path d="M174.955 249.334c9.223 0 16.699-4.416 16.699-9.862 0-5.447-7.476-9.863-16.699-9.863-9.222 0-16.699 4.416-16.699 9.863 0 5.446 7.477 9.862 16.699 9.862z" fill="#515151"/><path fill-rule="evenodd" clip-rule="evenodd" d="M174.955 223.109c8.854 0 15.914 4.707 15.914 10.423s-7.172 10.423-15.914 10.423c-8.853 0-15.914-4.707-15.914-10.423s7.061-10.423 15.914-10.423z" fill="#404040"/><path fill-rule="evenodd" clip-rule="evenodd" d="M174.955 223.109c8.854 0 15.914 4.371 15.914 9.75 0 5.38-7.172 9.751-15.914 9.751-8.853 0-15.914-4.371-15.914-9.751 0-5.379 7.061-9.75 15.914-9.75z" fill="#727272"/><path fill-rule="evenodd" clip-rule="evenodd" d="M186.835 228.489c-4.035-6.501-4.819-10.199-4.707-17.82 0-10.983-14.457-11.431-14.457-.112-.113 8.406-.561 11.656-5.156 18.604-.56.897-.896 1.905-.896 2.914v.336c.224 4.147 6.052 7.397 13.224 7.397 7.285 0 13.337-3.474 13.337-7.733 0-1.345-.449-2.578-1.345-3.586z" fill="#646464"/><path fill-rule="evenodd" clip-rule="evenodd" d="M182.24 216.161c-.112-1.681-.224-3.475-.112-5.604 0-10.983-14.458-11.431-14.458-.112 0 2.242-.112 4.035-.224 5.716 2.69 2.802 12.889 2.577 14.794 0z" fill="#404040"/><path fill-rule="evenodd" clip-rule="evenodd" d="M174.955 202.6c6.388 0 11.544 3.138 11.544 6.948 0 3.811-5.156 6.949-11.544 6.949-6.388 0-11.543-3.138-11.543-6.949-.112-3.81 5.155-6.948 11.543-6.948z" fill="#646464"/><path d="M174.955 215.152c6.375 0 11.543-2.81 11.543-6.276 0-3.466-5.168-6.276-11.543-6.276-6.375 0-11.543 2.81-11.543 6.276 0 3.466 5.168 6.276 11.543 6.276z" fill="#404040"/><path fill-rule="evenodd" clip-rule="evenodd" d="M174.955 194.419c8.854 0 15.914 4.371 15.914 9.75s-7.172 9.75-15.914 9.75c-8.853 0-15.914-4.371-15.914-9.75s7.061-9.75 15.914-9.75z" fill="#646464"/><path fill-rule="evenodd" clip-rule="evenodd" d="M174.955 192.401c6.5 0 11.768 3.363 11.768 7.509 0 4.147-5.268 7.509-11.768 7.509-6.5 0-11.767-3.362-11.767-7.509-.112-4.034 5.267-7.509 11.767-7.509z" fill="#404040"/><path d="M174.955 206.41c6.314 0 11.432-3.11 11.432-6.948 0-3.837-5.118-6.948-11.432-6.948-6.313 0-11.431 3.111-11.431 6.948 0 3.838 5.118 6.948 11.431 6.948z" fill="#646464"/><path fill-rule="evenodd" clip-rule="evenodd" d="M174.955 193.074c3.811 0 6.949 1.905 6.949 4.259 0 2.353-3.138 4.258-6.949 4.258-3.81 0-6.948-1.905-6.948-4.258 0-2.354 3.026-4.259 6.948-4.259z" fill="#515151"/><path fill-rule="evenodd" clip-rule="evenodd" d="M174.843 198.453c-6.276 0-10.983-4.258-10.983-9.414 0-4.931 2.914-9.414 11.095-15.578 6.948 5.38 11.207 10.199 11.095 15.578 0 5.38-4.931 9.414-11.207 9.414z" fill="#646464"/><path fill-rule="evenodd" clip-rule="evenodd" d="M174.843 198.453c-6.276 0-10.983-4.258-10.983-9.414 0-.448 0-.784.112-1.232.56 4.034 5.155 7.284 10.983 7.284s10.535-3.138 11.207-7.284c0 .448.112.896.112 1.232-.224 5.38-5.155 9.414-11.431 9.414z" fill="#404040"/><path fill-rule="evenodd" clip-rule="evenodd" d="M175.291 205.402c2.017.336 6.949-.785 8.181-2.354.225-.224.225-1.008-.672-.56-2.69 1.121-4.819 1.457-7.621 2.017-.784.224-.56.785.112.897zm10.759 4.595c.785-.561 1.345-1.121 1.121-1.345 0-.112-2.13.897-3.026 1.233-2.017.784-4.707 1.345-6.949 1.681-.896.112-3.25.336-3.25.56 0 .112.673.336 1.457.336 3.699.449 7.957-.336 10.647-2.465zm2.578 27.457c-.112-.112-3.811 2.13-7.845 3.138-4.371 1.121-8.966 1.121-8.966 1.233.112.673 4.819.897 9.302-.336 4.259-1.121 7.845-3.474 7.509-4.035z" fill="#868686"/><path fill-rule="evenodd" clip-rule="evenodd" d="M172.265 239.472c.112-1.009 1.009-6.164 5.155-7.733 4.707-1.681 7.733 1.905 9.302 3.698-3.474 4.035-10.871 4.595-14.457 4.035zm3.587 19.724c2.241-2.353 10.423-5.603 15.802-4.37-5.491 4.146-15.017 4.482-15.802 4.37z" fill="#646464"/><path fill-rule="evenodd" clip-rule="evenodd" d="M194.344 256.731c-.112-.112-4.595 2.465-9.414 3.81-5.156 1.345-10.759 1.457-10.759 1.569.112.785 5.716 1.009 11.095-.448 5.267-1.457 9.526-4.259 9.078-4.931zm-9.863-43.708c0-.112-2.802 1.345-5.716 2.017-3.138.672-6.5.56-6.5.672 0 .449 3.474.785 6.724 0 3.138-.672 5.716-2.241 5.492-2.689zm-9.302-38.777v8.293c0 7.733 3.811 8.181 5.492 6.276 1.345-1.457 1.008-4.595-1.233-8.069l-4.259-6.5zm17.483 74.976c-.112-.112-4.146 2.241-8.629 3.474-4.707 1.233-9.863 1.345-9.75 1.457.112.785 5.267.897 10.198-.448 4.707-1.233 8.518-3.811 8.181-4.483z" fill="#868686"/><path fill-rule="evenodd" clip-rule="evenodd" d="M172.938 249.222c1.233-3.362 4.147-4.931 7.509-5.716 2.802-.672 6.276-.672 8.405 1.345-6.052 5.38-15.914 4.371-15.914 4.371z" fill="#646464"/><path fill-rule="evenodd" clip-rule="evenodd" d="M85.074 298.758l36.647-20.846c4.035-1.793 9.75-3.25 13.785-1.12 3.698 1.905 9.862 5.827 12.552 7.396 2.017 1.121 9.19 5.492 4.707 7.845-13 7.061-26.001 15.13-39.225 22.303-2.466 1.344-6.164 1.905-9.974 1.569-3.81-.337-7.733-1.457-10.871-3.25-2.242-1.233-4.371-2.578-6.5-3.811-2.914-1.681-4.371-3.698-4.596-5.491-.112-1.794 1.01-3.475 3.475-4.595z" fill="#8DB5FE"/><path fill-rule="evenodd" clip-rule="evenodd" d="M99.643 291.585l-.56 2.129c-.337 2.354-.673 3.587-.337 4.82.337 1.456 3.138.224 3.587.784.56.672-.449 2.241-1.457 2.69-.897.224-2.017.672-2.578.672-1.905 0-4.147-1.121-5.603-2.353-1.457-1.233 0-2.242-.673-4.035-.448-1.009-1.569-2.69-1.793-4.595-.112-1.345-.112-2.578 2.241-3.25.897-1.009 1.345-1.457 1.793-2.017 3.363 0 4.26 3.698 5.38 5.155z" fill="#090701"/><path fill-rule="evenodd" clip-rule="evenodd" d="M98.858 302.792c-2.129.561-4.595-.56-6.5-2.353-1.345-1.233.448-2.242-.224-4.035-.448-1.008-1.569-2.69-1.793-4.595-.336-2.241 1.233-3.138 3.25-2.353 1.345.56 2.354 2.017 2.69 3.586.336 1.681.112 2.802-.112 3.811-.224 1.344.224 3.586 1.12 4.819.897 1.232 2.466.784 3.923.336-.785.336-1.681.672-2.354.784z" fill="#000"/><path fill-rule="evenodd" clip-rule="evenodd" d="M99.53 291.921c6.165-11.095 11.096-19.612 18.157-30.483 3.922-6.052 7.284-11.88 9.862-18.604 3.362-1.457 3.81-3.699 3.81-8.293 0-4.595-5.379-13.897-9.862-11.432-.336.561-.897 1.009-1.457 1.569-5.043 5.38-5.94 7.061-8.069 14.121-1.457 4.707-2.466 9.638-3.026 11.319-3.026 9.751-2.129 6.277-6.836 13.897-4.371 7.061-5.38 15.69-8.63 23.311 1.457 0 4.82 1.569 6.052 4.595z" fill="#362C26"/><path fill-rule="evenodd" clip-rule="evenodd" d="M125.756 290.689c.224 0 5.267-.673 6.052-.785 1.793-.224 4.931-1.121 6.5-1.233 1.345-.112 2.354 0 2.914.561.56.56.785 1.456.448 2.129-.56 1.121-1.457 1.681-3.25 3.138-1.345 1.121-3.698 2.466-6.052 2.802-.56.112-1.232-.897-1.681-.785l-.224 1.345c-.784.673-2.241 1.569-3.138 1.121-1.009-.448-2.578-1.681-2.914-1.905-.224-1.009-.784-2.354-.896-3.475-.224-1.681.448-2.577.56-3.25l1.681.337z" fill="#090701"/><path fill-rule="evenodd" clip-rule="evenodd" d="M132.032 290.016c2.354-4.931 5.94-11.095 8.966-15.466 1.569-2.241 2.69-4.259 4.147-6.836.784-1.569 1.456-2.578 1.681-4.035.224-1.569.224-2.69 0-3.586-.112-.448-.225-1.009-.337-1.457-2.241-8.181-3.474-12.552-7.284-20.061-.336-2.353-.224-4.259-.336-5.267-.449-4.595-10.087-8.854-14.009-8.854-4.595 5.716-5.492 15.466-2.242 19.837 4.371 5.828 9.078 12.216 13.112 18.155-1.905 1.794-3.362 4.147-4.707 6.725-3.362 6.612-5.267 15.129-7.396 21.069-1.233 3.362 6.164 4.259 8.405-.224z" fill="#4A3C35"/><path fill-rule="evenodd" clip-rule="evenodd" d="M159.601 203.272c.225-.56.785-1.008 1.121-1.569.112-.224.673-.896.785-1.232 3.586-3.475 1.344-4.147 1.457-7.957.224-1.121.448-2.354.672-3.475.224-1.345.112-2.017-.672-2.353-.673-.336-1.009-.448-1.682-.673-.56-.224-.896-.224-1.344.897-.673 1.457-1.457 3.474-1.569 4.483-.225 1.345.448 4.147 0 6.164-.112.448-.225 1.008-.449 1.345l-1.232 1.793 2.913 2.577z" fill="#FFCFAE"/><path fill-rule="evenodd" clip-rule="evenodd" d="M142.679 219.075c1.233 3.698 4.483 2.129 5.828.224 5.267-6.276 7.621-8.966 10.534-14.121.561-.897 1.009-1.681 1.121-2.578.224-.448 1.009-1.345 1.233-1.905-.785-.336-2.914-1.457-3.362-2.914-.448.672-.897 1.569-1.345 2.017-.448 0-1.345.785-2.017 1.457a136.213 136.213 0 00-5.716 5.716c0-3.474-.224-8.293-1.233-10.199-1.905-3.362-5.828-.56-6.612 2.578-1.009 5.155.448 14.681 1.569 19.725z" fill="#362C26"/><path fill-rule="evenodd" clip-rule="evenodd" d="M155.343 197.109c-.448.448-3.586-1.009-3.586-.785-4.259.897-6.388-2.017-6.613-2.802.449-.56.449-1.569.449-1.905-.337-1.233-1.233-2.914-1.233-4.595.112-2.802 1.345-5.604 4.259-6.612 5.491-2.017 10.086 2.017 9.862 7.509-.112.896-.897 1.569-1.121 2.465 0 .112.112.448.224.785.112.56-.784 4.819-2.241 5.94z" fill="#FEC49D"/><path fill-rule="evenodd" clip-rule="evenodd" d="M153.325 191.841c-1.121-2.017-4.147 2.13-1.569 2.914-.673-1.345.56-2.69 1.569-2.914z" fill="#FEC49D"/><path fill-rule="evenodd" clip-rule="evenodd" d="M153.101 192.514c.448-.561.336-.897 0-.897s-.896.224-1.345.897c-.784 1.008-.672 2.465.561 2.353-.897-.224-.449-1.345 0-1.905.336-.448.672-.673.784-.448z" fill="#FFCFAE"/><path fill-rule="evenodd" clip-rule="evenodd" d="M152.541 192.626c.112.56.112.896 0 1.008-.112.112-.337.112-.449-.224 0-.336.224-.56.449-.784z" fill="#EDB48F"/><path fill-rule="evenodd" clip-rule="evenodd" d="M145.593 192.289c-.225-1.793-1.345-3.138-1.121-5.379.336-4.819 3.698-8.069 8.966-6.948 3.026.672 4.819 3.138 5.043 4.37-.224.337-1.121-.448-1.793.224-.337.337-.561 1.233-.337 2.018.449 1.12 0 2.129-.336 2.465-1.457 1.009-1.12 1.345-1.793 3.475l-.672.224c.336-1.681-.449-1.793-1.345-1.569-1.569.56-2.69 2.465-4.819 2.241-1.009 0-1.569-.448-1.793-1.121z" fill="#471F2C"/><path fill-rule="evenodd" clip-rule="evenodd" d="M137.299 192.514c-2.69 1.793-4.931 4.146-6.836 7.508-2.802 4.932-5.268 13.449-7.845 19.725-.673 1.681-2.354 4.371-3.474 5.604 3.81 1.12 16.474 6.388 19.724 11.767.448-4.483 3.362-7.957 6.164-11.207 2.017-2.354 3.811-4.595 5.043-6.052 5.94-7.06 11.096-12.104 9.302-17.147-.56-1.681-1.905-3.25-3.138-4.259-1.793-1.457-6.052-3.362-9.862-4.707-3.362-1.12-7.397-2.353-9.078-1.232z" fill="#F1EDD7"/><path fill-rule="evenodd" clip-rule="evenodd" d="M170.361 207.98c.224-.561.784-1.009 1.12-1.569.112-.225.673-.897.785-1.233 3.586-3.475 1.345-4.147 1.457-7.957.224-1.121.448-2.354.672-3.475.224-1.344.112-2.017-.672-2.353-.673-.336-1.009-.448-1.681-.673-.561-.224-.897-.224-1.345.897-.673 1.457-1.457 3.474-1.569 4.483-.224 1.345.448 4.147 0 6.164-.112.448-.224 1.009-.448 1.345l-1.233 1.793 2.914 2.578z" fill="#FFCFAE"/><path fill-rule="evenodd" clip-rule="evenodd" d="M155.791 213.023c2.129-3.026 4.483-6.388 3.922-9.526-.224-1.009-.672-2.13-1.456-3.026-4.259-5.268-16.139-9.414-20.734-8.294-5.043 1.233-7.284 7.061-9.414 12.328-3.922 9.751-9.078 19.052-20.509 20.285-1.009 1.793.112 5.156 1.345 6.613 2.802.784 6.052.896 9.302-.449-3.923 1.905-5.043 2.242-7.733 2.242 2.465 3.362 10.535 7.172 14.793 6.612 10.647-1.457 25.104-19.164 30.484-26.785z" fill="#4A3C35"/><path fill-rule="evenodd" clip-rule="evenodd" d="M153.437 223.67c1.233 3.698 4.483 2.129 5.828.224 5.268-6.276 7.621-8.966 10.535-14.121.56-.897 1.009-1.681 1.121-2.578.224-.448 1.008-1.345 1.232-1.905-.784-.336-2.913-1.457-3.362-2.914-.448.672-.896 1.569-1.345 2.017-.448 0-1.344.785-2.017 1.457a137.428 137.428 0 00-5.716 5.716c0-3.474-.224-8.294-1.232-10.199-1.906-3.362-5.828-.56-6.613 2.578-1.12 5.155.449 14.681 1.569 19.725z" fill="#5B4A41"/><path opacity=".5" fill-rule="evenodd" clip-rule="evenodd" d="M303.053 132.107l30.932-17.595c3.362-1.569 8.181-2.802 11.656-1.009 3.138 1.681 8.293 4.931 10.534 6.276 1.682 1.009 7.733 4.595 4.035 6.612-10.983 6.052-21.966 12.776-33.173 18.828-2.13 1.121-5.268 1.569-8.518 1.345-3.25-.224-6.612-1.233-9.19-2.69-1.905-1.12-3.698-2.129-5.491-3.25-2.466-1.457-3.698-3.138-3.811-4.595-.112-1.569.897-3.026 3.026-3.922z" fill="#8EB5FF"/><path fill-rule="evenodd" clip-rule="evenodd" d="M293.079 56.458c-1.233.785-2.69 4.035-3.587 5.044-.896 1.232-5.715 1.456-6.948 1.344.336-.112-.448-.336-.112-.672 1.009-.897 2.466-3.25 3.026-3.922.56-.785.112-.673.224-.897 1.793-3.026 3.923-1.793 5.379-3.25l2.018 2.353z" fill="#EDB48F"/><path fill-rule="evenodd" clip-rule="evenodd" d="M287.139 57.915c-.337.112-1.233 1.12-1.681 1.57-.673.896-1.457 1.568-2.13.896.56-1.12.785-1.345 1.233-2.13.224-.112 1.905-2.017 2.914-2.577.784-.449 2.577-.673 3.698-1.345 1.905 3.138-3.81 3.474-4.034 3.586z" fill="#EDB48F"/><path fill-rule="evenodd" clip-rule="evenodd" d="M290.837 54.105c.336 1.457.784 2.017 1.681 3.026.336-.224 1.009-.449 1.345-.56.336-.113 1.345.224 1.905.111 3.138-.672 14.345-6.052 16.699-8.069 2.914-2.465.224-10.086-4.483-6.388-3.25 1.57-12.328 7.733-15.018 9.862-.448.337-.672.897-1.008 1.233-.225.337-.561.56-1.121.785z" fill="#E6E2C8"/><path fill-rule="evenodd" clip-rule="evenodd" d="M312.691 48.501c1.233-.896 1.569-1.793 1.681-3.474.784-5.716 1.345-12.888.56-18.38-.672-4.707-3.138-7.509-5.491-7.172-2.018.224-4.035 3.025-4.035 5.827-.112 7.173.673 13.673 1.681 21.182.224 1.793 1.793 2.69 5.604 2.017z" fill="#E6E2C8"/><path fill-rule="evenodd" clip-rule="evenodd" d="M317.51 88.51c.449 4.035 4.483 5.38 8.63.561 2.017-7.397 8.405-19.837 8.405-27.01 0-3.137-1.569-6.836-1.793-9.413-5.94 5.603-10.871 1.793-12.888 1.008-.336 2.13.896 3.363.672 5.604-.784 7.733-2.129 17.707-2.801 25.777-.337 1.12-.337 2.465-.225 3.474zm27.009 24.993c.112.224.224.448.449.672-.561 2.466-.673 3.25-.897 3.362-.224.113-.112 0-.448.337-.449.448-.224 4.034-.449 4.931-.224.784-.56 1.457-1.232 2.017-1.233.897-2.69 1.569-4.259 2.017-1.345.337-2.466.225-3.026-.336-.785-.784 0-1.457.672-2.129.225-.224 1.233-.448 1.345-.785.785-1.681.673-3.81.785-5.715-.112-1.569-.449-2.69-.673-3.923-.336-1.793 0-3.026 1.681-2.914.561 0 2.242-.336 2.69 0 .56.673 2.69 1.009 3.362 2.466z" fill="#090701"/><path fill-rule="evenodd" clip-rule="evenodd" d="M322.329 94.339c4.259 6.276 11.431 14.905 13.673 19.948 2.465.449 4.931-1.12 5.155-3.25-2.129-5.94-4.931-13.897-6.388-17.035-1.233-2.577-5.491-5.715-7.285-7.733-3.362-5.043-9.526-2.353-9.414 1.345.897 1.793 3.026 4.931 4.259 6.725z" fill="#090701"/><path fill-rule="evenodd" clip-rule="evenodd" d="M315.941 91.985c-.224 3.362 2.018 5.492 7.285 2.914 3.811-6.388 14.682-17.932 16.923-25.104 2.578-8.406-1.233-13-4.707-15.802-1.457-1.121-4.371.224-5.267-.785-1.233 2.578-7.509-1.569-8.518 1.681-.448 1.57 4.707 9.75 3.811 11.768-2.69 6.164-8.966 20.621-9.527 25.328z" fill="#32312F"/><path fill-rule="evenodd" clip-rule="evenodd" d="M317.623 127.064c.336 1.905-5.604 7.508-6.949 8.741-1.233 1.009-1.345 1.905 0 2.578 1.121.56 3.474-.224 5.043-.673 2.802-1.008 3.811-2.801 4.819-3.362l.785.112c.672 0 2.914-1.232 3.362-1.905.112-.56.224-1.569.112-2.241-.112-2.466-.784-1.681-1.569-3.587-2.241.337-1.345 1.233-5.603.337z" fill="#090701"/><path fill-rule="evenodd" clip-rule="evenodd" d="M315.83 92.321c.224 7.06 1.793 28.13 1.681 35.079 2.017 1.569 4.931 1.345 5.939-.448.897-6.164 2.914-17.484 2.914-20.958 0-2.914-1.457-11.32-2.129-14.009-.336-4.034-7.621-5.94-8.405.336z" fill="#32312F"/><path fill-rule="evenodd" clip-rule="evenodd" d="M310.114 18.466c-4.259 1.457-5.044 6.276-4.035 10.31 2.017 8.07 4.819 13.113 8.518 19.053.896 1.457 2.801 5.603 4.819 6.5.224.336.336.672.56 1.12 1.345 2.915 15.242 4.708 18.492 1.346-.112-.225-.224-1.57-.112-2.242.448-1.457.336-3.138.112-4.259-1.009-6.612-3.026-14.009-4.595-19.276-1.121-3.81-2.914-6.5-5.828-7.845-2.465-1.009-14.457-5.828-17.931-4.707z" fill="#F1EDD7"/><path fill-rule="evenodd" clip-rule="evenodd" d="M312.468 23.733c-.112-.224-.224-.448-.449-.784-.448-.785-.672-2.354-1.457-4.147l6.613-3.474 1.345-.897c-.112 2.69.896 4.82 2.017 6.725.56 2.577-4.483 4.034-7.173 4.819-.336-.56-.56-1.457-.896-2.242z" fill="#EDB48F"/><path fill-rule="evenodd" clip-rule="evenodd" d="M313.363 25.975a13.743 13.743 0 01-.448-1.793c-.224-.56-.784-2.018-.784-2.354-.561.224-.785 3.586-1.345 5.155.896-.784 1.345-.896 2.577-1.008zm6.949-5.268c.112 2.578-4.146 4.595-6.948 5.38.784.784 1.681 1.793 1.681 2.69 2.017-.673 5.267-1.794 6.5-4.483.897-1.906-.112-3.138-1.233-3.587z" fill="#FFFCE4"/><path fill-rule="evenodd" clip-rule="evenodd" d="M313.14 22.725c.672-.673 2.577-2.018 3.138-2.578 1.456-1.345 1.008-2.802 1.12-5.155 1.345-1.233 1.681-2.13 1.681-3.138 0-2.242-1.569-4.483-3.474-5.604-1.681-.896-3.362-1.009-5.267-.336-3.587 1.345-4.931 3.474-4.707 6.724 0 .224.224 1.345.336 1.57.336.672.448.672.672 1.12.112.336.112.672 0 1.12-.224 1.121 1.906 5.94 2.69 6.389 1.009.672 2.466.672 3.811-.112z" fill="#FFCFAE"/><path fill-rule="evenodd" clip-rule="evenodd" d="M308.769 20.707c.112 0 .224 0 .336.112h.56c.336.113.448.337 1.009.337.224 0 .112 0 0 .112-.224.112-1.233.224-1.681.112-.224-.112-.224-.224-.337-.336 0-.113-.112-.337.113-.337z" fill="#fff"/><path fill-rule="evenodd" clip-rule="evenodd" d="M310.45 15.888c.784.112 1.457.112 2.241-.448-.784.784-1.569.784-2.241.448zm-2.354-.224c-.672 0-.896 0-1.457-.336.448.448.897.56 1.569.448l-.112-.112zm.337.673c-.112.784 0 1.12-.336 1.793-.561 1.008-.225 1.345.784 1.345-1.009-.225-1.009-.56-.672-1.345.224-.56.224-.897.224-1.793z" fill="#B4B4B4"/><path fill-rule="evenodd" clip-rule="evenodd" d="M307.087 15.664c.112.336.561.448.785.112-.224 0-.448 0-.785-.112zm4.932.224c-.112.336-.448.449-.672.224.224-.112.448-.112.672-.224z" fill="#B4B4B4"/><path fill-rule="evenodd" clip-rule="evenodd" d="M319.64 10.509c.112 1.233-.449 4.483-1.009 5.715-.56 1.345-.448-.224-1.009-1.008-.336-.56-.784-.448-1.232-1.12-.112.56-.225 1.12-.449 1.344-.224.112-.672.336-.784-.224-.336-2.242-1.457-2.242-1.345-3.586.224-2.354-2.69-.225-3.362.224-.561.336-3.138 1.008-5.155.224-1.906-.673-2.466-2.914-1.121-4.483.672-.897 2.241-1.681 3.474-2.802 2.241-2.017 5.492-1.905 7.397-.336 3.586.224 4.371 3.362 4.595 6.052z" fill="#471F2C"/><path fill-rule="evenodd" clip-rule="evenodd" d="M315.268 4.793c-.784-1.345-1.793-1.68-3.362-1.793 1.569.336 2.242.448 3.026 2.241l.336-.448z" fill="#492A31"/><path fill-rule="evenodd" clip-rule="evenodd" d="M314.372 4.793c1.121-.56 1.905-.448 3.026.224-1.233-.448-1.681-.56-2.914.224l-.112-.448z" fill="#492A31"/><path fill-rule="evenodd" clip-rule="evenodd" d="M317.174 12.974c1.345-.784 1.681.785 1.681 1.906 0 .672-.56.784-.672 1.457-.112.672-.56 1.12-1.009 1.232-.896.225-.672-1.232-.672-1.793-.112-.896-.112-2.353.672-2.802z" fill="#FFCFAE"/><g filter="url(#filter4_d)"><path d="M302.924 85.857c12.991-1.349 22.884-8.582 22.098-16.154-.787-7.573-11.955-12.618-24.946-11.27-12.991 1.35-22.884 8.582-22.098 16.155.787 7.573 11.955 12.618 24.946 11.27z" fill="#646464"/><path fill-rule="evenodd" clip-rule="evenodd" d="M300.027 58.924c11.88-1.233 22.19 3.25 22.863 10.086.672 6.837-8.406 13.337-20.285 14.57-11.88 1.233-22.19-3.25-22.863-10.087-.672-6.836 8.406-13.336 20.285-14.57z" fill="#505050"/><path fill-rule="evenodd" clip-rule="evenodd" d="M299.467 53.208c11.767-1.233 21.854 3.474 22.638 10.423.673 6.948-8.181 13.56-19.948 14.793-11.768 1.233-21.854-3.474-22.639-10.422-.784-6.837 8.181-13.561 19.949-14.794z" fill="#717171"/><path fill-rule="evenodd" clip-rule="evenodd" d="M299.467 53.32c10.311-1.12 19.165 3.026 19.837 9.19.672 6.164-7.173 11.992-17.483 13-10.311 1.121-19.165-3.026-19.837-9.19-.672-6.163 7.173-11.991 17.483-13z" fill="#505050"/><path fill-rule="evenodd" clip-rule="evenodd" d="M298.907 48.165c8.293-.897 15.354 2.241 15.802 6.948.448 4.707-5.828 9.19-14.121 9.975-8.293.896-15.354-2.242-15.802-6.949-.336-4.707 5.94-9.19 14.121-9.974z" fill="#434343"/><path fill-rule="evenodd" clip-rule="evenodd" d="M298.683 45.587c8.293-.896 15.354 2.578 15.914 7.621.56 5.043-5.716 9.863-14.009 10.76-8.293.896-15.354-2.579-15.914-7.622-.448-5.043 5.716-9.862 14.009-10.759z" fill="#717171"/><path fill-rule="evenodd" clip-rule="evenodd" d="M310.226 49.174c-4.371-5.716-5.491-8.966-6.052-16.139-1.008-10.198-14.569-9.19-13.448 1.233.784 7.845.56 10.871-3.026 17.82-.449.896-.673 1.905-.561 2.801v.224c.673 3.81 6.388 6.389 13.113 5.604 6.836-.672 11.991-4.483 11.655-8.405-.112-1.233-.784-2.242-1.681-3.138z" fill="#646464"/><path fill-rule="evenodd" clip-rule="evenodd" d="M304.174 33.596c0-.224 0-.449-.112-.673-1.008-10.198-14.569-9.19-13.448 1.233 0 .224 0 .56.112.785.448 2.801 13.897 1.344 13.448-1.345z" fill="#434343"/><path fill-rule="evenodd" clip-rule="evenodd" d="M296.217 21.268c6.276-.673 11.656 1.905 12.104 5.828.448 3.81-4.371 7.508-10.647 8.18-6.276.673-11.655-1.905-12.104-5.827-.448-3.923 4.371-7.509 10.647-8.181z" fill="#646464"/><path fill-rule="evenodd" clip-rule="evenodd" d="M295.208 11.63c4.931-.56 9.302 3.025 9.862 7.957.561 4.93-3.025 9.302-7.957 9.862-4.931.56-9.302-3.026-9.862-7.957-.56-4.931 3.026-9.302 7.957-9.863z" fill="#646464"/><path fill-rule="evenodd" clip-rule="evenodd" d="M304.623 17.906c.224.56.336 1.12.336 1.793.561 4.93-3.026 9.302-7.957 9.862-4.931.56-9.302-3.026-9.862-7.957a4.827 4.827 0 010-1.793c1.233 4.034 5.155 6.724 9.526 6.276 4.259-.56 7.621-4.035 7.957-8.181z" fill="#505050"/><path fill-rule="evenodd" clip-rule="evenodd" d="M297.674 15.216c1.793-.224 3.362 1.12 3.586 2.914.224 1.793-1.121 3.362-2.914 3.586-1.793.224-3.362-1.12-3.586-2.914-.224-1.793 1.121-3.362 2.914-3.586zm-.897 19.388c2.466.112 8.07-1.793 9.302-3.698.224-.336.112-1.12-.784-.672-3.026 1.68-5.492 2.353-8.63 3.362-1.008.224-.672 1.008.112 1.008zm13.897 24.544c.673-.672 1.233-1.345 1.121-1.569-.112-.112-2.129 1.233-3.026 1.569-2.017 1.009-4.819 1.905-7.06 2.466-.897.224-3.251.672-3.251.896 0 .224.785.224 1.57.224 3.698.224 7.957-1.12 10.646-3.586zm7.958 11.207c-.112-.112-4.259 2.914-8.854 4.595-4.931 1.905-10.423 2.466-10.31 2.578.112.784 5.715.448 10.87-1.57 4.82-1.792 8.742-5.043 8.294-5.603z" fill="#838383"/><path fill-rule="evenodd" clip-rule="evenodd" d="M299.803 75.735s-.112-7.397 5.156-9.863c5.267-2.577 9.526 1.233 11.431 3.25-4.931 6.164-16.587 6.613-16.587 6.613zm2.13 7.845c2.354-3.026 11.207-7.957 17.707-7.06-5.491 6.051-17.707 7.06-17.707 7.06z" fill="#646464"/><path fill-rule="evenodd" clip-rule="evenodd" d="M321.097 77.192c-.112-.112-4.147 2.913-8.742 4.707-4.931 1.905-10.311 2.577-10.311 2.69.113.784 5.716.335 10.871-1.682 4.932-1.905 8.742-5.043 8.182-5.715z" fill="#838383"/></g><path fill-rule="evenodd" clip-rule="evenodd" d="M317.398 65.536c-1.233.785-2.69 4.595-3.474 5.716-.897 1.233-5.828 3.362-7.061 3.25.673-1.009 1.681-1.793 2.578-2.914.784-.897 1.009-3.586 1.009-4.147.112-1.008-.449-.672-.337-.896 1.794-3.026 3.923-1.793 5.38-3.362l1.905 2.353z" fill="#FFCFAE"/><path fill-rule="evenodd" clip-rule="evenodd" d="M311.234 67.778c-.336.112-1.233.112-1.681.56-.785.785-1.457 1.569-2.13.785.673-1.01.897-1.233 1.345-2.018.224-.112 2.13-1.905 3.138-2.353.785-.337 1.345-.224 2.466-.897 1.681 3.474-2.914 3.81-3.138 3.923z" fill="#FFCFAE"/><path fill-rule="evenodd" clip-rule="evenodd" d="M314.82 63.63c.785 1.234 1.457 1.57 2.578 2.354.224-.336.784-.784 1.009-1.008.336-.224 1.344-.224 1.905-.56 2.69-1.682 11.543-10.423 13.112-13.113 2.018-3.362-3.026-9.638-6.276-4.595-2.465 2.578-9.19 11.32-10.983 14.233-.336.448-.336 1.12-.448 1.457-.224.56-.448.897-.897 1.233z" fill="#FFFCE4"/><path fill-rule="evenodd" clip-rule="evenodd" d="M332.864 51.975c1.121-1.008 1.457-1.905 1.345-3.586.336-5.828.336-13.336-.897-18.828-1.905-8.63-10.31-6.836-9.862-.896.56 7.172 1.793 14.345 3.474 21.741.448 1.794 2.129 2.69 5.94 1.57z" fill="#FFFCE4"/><g filter="url(#filter5_d)"><path d="M53.168 371.05h24.365c1.613 0 2.842.568 3.685 1.705.88 1.1 1.063 2.383.55 3.85L70.383 409H58.778l8.745-24.09c.66-1.87 1.357-3.318 2.09-4.345h-15.95l-.495-9.515zm49.938-.77c6.087 0 10.322 1.43 12.705 4.29 2.384 2.823 3.575 7.975 3.575 15.455s-1.191 12.65-3.575 15.51c-2.383 2.823-6.618 4.235-12.705 4.235-6.05 0-10.266-1.412-12.65-4.235-2.383-2.86-3.575-8.03-3.575-15.51s1.192-12.632 3.575-15.455c2.384-2.86 6.6-4.29 12.65-4.29zm-.055 8.855c-1.246 0-2.145.238-2.695.715-.55.44-.971 1.43-1.265 2.97-.256 1.503-.385 3.905-.385 7.205 0 3.3.129 5.72.385 7.26.294 1.503.715 2.493 1.265 2.97.55.44 1.449.66 2.695.66 1.32 0 2.255-.22 2.805-.66.587-.477 1.009-1.467 1.265-2.97.294-1.54.44-3.96.44-7.26s-.146-5.702-.44-7.205c-.256-1.54-.678-2.53-1.265-2.97-.55-.477-1.485-.715-2.805-.715zm53.358-8.855c6.087 0 10.322 1.43 12.705 4.29 2.383 2.823 3.575 7.975 3.575 15.455s-1.192 12.65-3.575 15.51c-2.383 2.823-6.618 4.235-12.705 4.235-6.05 0-10.267-1.412-12.65-4.235-2.383-2.86-3.575-8.03-3.575-15.51s1.192-12.632 3.575-15.455c2.383-2.86 6.6-4.29 12.65-4.29zm-.055 8.855c-1.247 0-2.145.238-2.695.715-.55.44-.972 1.43-1.265 2.97-.257 1.503-.385 3.905-.385 7.205 0 3.3.128 5.72.385 7.26.293 1.503.715 2.493 1.265 2.97.55.44 1.448.66 2.695.66 1.32 0 2.255-.22 2.805-.66.587-.477 1.008-1.467 1.265-2.97.293-1.54.44-3.96.44-7.26s-.147-5.702-.44-7.205c-.257-1.54-.678-2.53-1.265-2.97-.55-.477-1.485-.715-2.805-.715zm39.06-8.855c6.087 0 10.322 1.43 12.705 4.29 2.383 2.823 3.575 7.975 3.575 15.455s-1.192 12.65-3.575 15.51c-2.383 2.823-6.618 4.235-12.705 4.235-6.05 0-10.267-1.412-12.65-4.235-2.383-2.86-3.575-8.03-3.575-15.51s1.192-12.632 3.575-15.455c2.383-2.86 6.6-4.29 12.65-4.29zm-.055 8.855c-1.247 0-2.145.238-2.695.715-.55.44-.972 1.43-1.265 2.97-.257 1.503-.385 3.905-.385 7.205 0 3.3.128 5.72.385 7.26.293 1.503.715 2.493 1.265 2.97.55.44 1.448.66 2.695.66 1.32 0 2.255-.22 2.805-.66.587-.477 1.008-1.467 1.265-2.97.293-1.54.44-3.96.44-7.26s-.147-5.702-.44-7.205c-.257-1.54-.678-2.53-1.265-2.97-.55-.477-1.485-.715-2.805-.715zm39.06-8.855c6.086 0 10.321 1.43 12.705 4.29 2.383 2.823 3.575 7.975 3.575 15.455s-1.192 12.65-3.575 15.51c-2.384 2.823-6.619 4.235-12.705 4.235-6.05 0-10.267-1.412-12.65-4.235-2.384-2.86-3.575-8.03-3.575-15.51s1.191-12.632 3.575-15.455c2.383-2.86 6.6-4.29 12.65-4.29zm-.055 8.855c-1.247 0-2.145.238-2.695.715-.55.44-.972 1.43-1.265 2.97-.257 1.503-.385 3.905-.385 7.205 0 3.3.128 5.72.385 7.26.293 1.503.715 2.493 1.265 2.97.55.44 1.448.66 2.695.66 1.32 0 2.255-.22 2.805-.66.586-.477 1.008-1.467 1.265-2.97.293-1.54.44-3.96.44-7.26s-.147-5.702-.44-7.205c-.257-1.54-.679-2.53-1.265-2.97-.55-.477-1.485-.715-2.805-.715zm67.796.825h-10.615V409H279.61v-29.04h-10.615v-8.91h33.165v8.91zM341.927 409h-12.485l-2.475-11.275c-.22-1.027-.568-1.705-1.045-2.035-.44-.367-1.173-.55-2.2-.55h-3.685V409h-11.715v-37.95c3.74-.367 9.112-.55 16.115-.55 5.72 0 9.809.843 12.265 2.53 2.494 1.687 3.74 4.693 3.74 9.02 0 5.5-2.566 8.507-7.7 9.02v.33c3.447.44 5.519 2.42 6.215 5.94l2.97 11.66zm-21.89-22.275h4.125c1.724 0 2.86-.257 3.41-.77.587-.513.88-1.558.88-3.135 0-1.577-.293-2.622-.88-3.135-.55-.513-1.686-.77-3.41-.77h-4.125v7.81zM371.065 409l-7.04-15.95L356.93 409h-11.825l9.405-19.36-8.635-18.59h11.77l6.38 15.015 6.325-15.015h11.77l-8.635 18.59L382.89 409h-11.825z" fill="#fff"/></g><path d="M117.935 351h-2.354l-1.298-4.73c-.323-1.012-.961-1.518-1.914-1.518l-3.124-.022V351h-2.178v-15.18c1.246-.132 3.014-.198 5.302-.198 1.833 0 3.124.315 3.872.946.762.631 1.144 1.782 1.144 3.454 0 1.217-.22 2.134-.66 2.75-.426.616-1.137.99-2.134 1.122v.11c.982.293 1.62 1.027 1.914 2.2l1.43 4.796zm-8.69-8.14h3.08c1.085-.015 1.826-.205 2.222-.572.41-.381.616-1.093.616-2.134 0-1.027-.206-1.723-.616-2.09-.396-.367-1.137-.55-2.222-.55-1.496 0-2.523.007-3.08.022v5.324zm21.892 6.314l.11 1.694c-1.334.117-3.505.176-6.512.176-.938 0-1.679-.242-2.222-.726-.542-.499-.821-1.166-.836-2.002v-9.812c.015-.836.294-1.496.836-1.98.543-.499 1.284-.748 2.222-.748 3.007 0 5.178.059 6.512.176l-.11 1.716h-6.028c-.44 0-.755.11-.946.33-.176.205-.264.565-.264 1.078v3.036h6.402v1.782h-6.402v3.872c0 .513.088.88.264 1.1.191.205.506.308.946.308h6.028zm13.322-11.506h-5.632c-.513 0-.88.11-1.1.33-.205.205-.308.565-.308 1.078v3.278h6.204v1.782h-6.204V351h-2.2v-12.386c0-.895.271-1.591.814-2.09.557-.499 1.305-.748 2.244-.748 2.904 0 5.001.066 6.292.198l-.11 1.694zm13.113 11.506l.11 1.694c-1.335.117-3.506.176-6.512.176-.939 0-1.68-.242-2.222-.726-.543-.499-.822-1.166-.836-2.002v-9.812c.014-.836.293-1.496.836-1.98.542-.499 1.283-.748 2.222-.748 3.006 0 5.177.059 6.512.176l-.11 1.716h-6.028c-.44 0-.756.11-.946.33-.176.205-.264.565-.264 1.078v3.036h6.402v1.782h-6.402v3.872c0 .513.088.88.264 1.1.19.205.506.308.946.308h6.028zM172.565 351h-2.354l-1.298-4.73c-.322-1.012-.96-1.518-1.914-1.518l-3.124-.022V351h-2.178v-15.18c1.247-.132 3.014-.198 5.302-.198 1.834 0 3.124.315 3.872.946.763.631 1.144 1.782 1.144 3.454 0 1.217-.22 2.134-.66 2.75-.425.616-1.136.99-2.134 1.122v.11c.983.293 1.621 1.027 1.914 2.2l1.43 4.796zm-8.69-8.14h3.08c1.086-.015 1.826-.205 2.222-.572.411-.381.616-1.093.616-2.134 0-1.027-.205-1.723-.616-2.09-.396-.367-1.136-.55-2.222-.55-1.496 0-2.522.007-3.08.022v5.324zm23.433 8.14h-2.354l-1.298-4.73c-.323-1.012-.961-1.518-1.914-1.518l-3.124-.022V351h-2.178v-15.18c1.246-.132 3.014-.198 5.302-.198 1.833 0 3.124.315 3.872.946.762.631 1.144 1.782 1.144 3.454 0 1.217-.22 2.134-.66 2.75-.426.616-1.137.99-2.134 1.122v.11c.982.293 1.62 1.027 1.914 2.2l1.43 4.796zm-8.69-8.14h3.08c1.085-.015 1.826-.205 2.222-.572.41-.381.616-1.093.616-2.134 0-1.027-.206-1.723-.616-2.09-.396-.367-1.137-.55-2.222-.55-1.496 0-2.523.007-3.08.022v5.324zm20.616 3.564h-6.05L191.776 351h-2.244l4.752-14.586c.118-.396.389-.594.814-.594h2.244c.44 0 .704.198.792.594L202.908 351h-2.266l-1.408-4.576zm-.572-1.914l-1.782-5.764c-.044-.132-.11-.337-.198-.616a10.613 10.613 0 00-.176-.616h-.594l-.352 1.232-1.782 5.764h4.884zm9.548-8.69v11.924c0 .513.103.88.308 1.1.205.205.565.308 1.078.308h5.39l.11 1.694c-1.423.132-3.373.198-5.852.198-2.156 0-3.234-.997-3.234-2.992V335.82h2.2zm25.473 13.244l.22 1.672c-1.217.352-2.72.528-4.51.528-2.214 0-3.769-.587-4.664-1.76-.894-1.173-1.342-3.205-1.342-6.094 0-2.889.448-4.921 1.342-6.094.895-1.173 2.45-1.76 4.664-1.76 1.584 0 2.985.147 4.202.44l-.22 1.694a40.464 40.464 0 00-3.982-.176c-1.393 0-2.361.425-2.904 1.276-.528.851-.792 2.391-.792 4.62s.264 3.769.792 4.62c.543.851 1.511 1.276 2.904 1.276 1.863 0 3.293-.081 4.29-.242zm9.208-13.53c2.259 0 3.835.572 4.73 1.716.895 1.144 1.342 3.197 1.342 6.16s-.447 5.016-1.342 6.16c-.895 1.144-2.471 1.716-4.73 1.716-2.244 0-3.813-.572-4.708-1.716-.895-1.144-1.342-3.197-1.342-6.16s.447-5.016 1.342-6.16c.895-1.144 2.464-1.716 4.708-1.716zm2.948 3.234c-.543-.851-1.525-1.276-2.948-1.276s-2.405.425-2.948 1.276c-.528.851-.792 2.398-.792 4.642s.264 3.791.792 4.642c.543.851 1.525 1.276 2.948 1.276s2.405-.425 2.948-1.276c.543-.851.814-2.398.814-4.642s-.271-3.791-.814-4.642zm19.249-2.948v14.322c0 .572-.272.858-.814.858h-2.09c-.44 0-.756-.227-.946-.682l-4.73-10.34c-.528-1.144-.829-1.848-.902-2.112h-.308c.073.587.11 1.291.11 2.112V351h-2.2v-14.322c0-.572.278-.858.836-.858h2.024c.425 0 .748.227.968.682l4.598 10.076c.058.132.161.352.308.66.146.293.278.579.396.858.132.264.249.513.352.748h.33a28.38 28.38 0 01-.11-2.354v-10.67h2.178zm15.29 1.958h-4.818V351h-2.222v-13.222h-4.774v-1.958h11.814v1.958zm12.782 11.396l.11 1.694c-1.335.117-3.506.176-6.512.176-.939 0-1.68-.242-2.222-.726-.543-.499-.822-1.166-.836-2.002v-9.812c.014-.836.293-1.496.836-1.98.542-.499 1.283-.748 2.222-.748 3.006 0 5.177.059 6.512.176l-.11 1.716h-6.028c-.44 0-.756.11-.946.33-.176.205-.264.565-.264 1.078v3.036h6.402v1.782h-6.402v3.872c0 .513.088.88.264 1.1.19.205.506.308.946.308h6.028zm9.537-4.444l-3.08-.858c-1.085-.293-1.863-.785-2.332-1.474-.455-.704-.682-1.65-.682-2.838 0-.865.088-1.562.264-2.09.191-.543.513-.953.968-1.232a4.094 4.094 0 011.518-.55c.557-.088 1.305-.132 2.244-.132 1.789 0 3.315.154 4.576.462l-.132 1.606c-2.127-.073-3.579-.11-4.356-.11-1.144 0-1.907.117-2.288.352-.381.22-.572.807-.572 1.76 0 .748.132 1.276.396 1.584.279.308.755.55 1.43.726l3.014.836c1.129.308 1.921.807 2.376 1.496.469.689.704 1.628.704 2.816 0 1.672-.381 2.787-1.144 3.344-.763.557-2.105.836-4.026.836-1.613 0-3.205-.147-4.774-.44l.154-1.628c2.288.073 3.843.11 4.664.11 1.144-.015 1.907-.161 2.288-.44.396-.279.594-.88.594-1.804 0-.777-.132-1.313-.396-1.606-.264-.308-.733-.55-1.408-.726zm18.579-6.952h-4.818V351h-2.222v-13.222h-4.774v-1.958h11.814v1.958z" fill="#5376C2"/><path d="M181.531 432.812h-3.708V443h-2.754v-10.188h-3.708v-2.232h10.17v2.232zm3.091-1.08c.78-.924 2.166-1.386 4.158-1.386 1.992 0 3.378.462 4.158 1.386.78.912 1.17 2.598 1.17 5.058s-.39 4.152-1.17 5.076c-.78.912-2.166 1.368-4.158 1.368-1.992 0-3.378-.456-4.158-1.368-.768-.924-1.152-2.616-1.152-5.076 0-2.46.384-4.146 1.152-5.058zm6.066 1.71c-.336-.588-.972-.882-1.908-.882-.936 0-1.578.294-1.926.882-.336.588-.504 1.704-.504 3.348s.168 2.76.504 3.348c.348.588.99.882 1.926.882.936 0 1.572-.294 1.908-.882.348-.588.522-1.704.522-3.348s-.174-2.76-.522-3.348zm20.599 2.394V443h-2.016l-.252-1.242c-.96.984-2.154 1.476-3.582 1.476-1.392 0-2.4-.51-3.024-1.53-.624-1.02-.936-2.67-.936-4.95 0-2.424.408-4.098 1.224-5.022.828-.924 2.274-1.386 4.338-1.386 1.5 0 2.772.144 3.816.432l-.216 2.016a80.954 80.954 0 00-3.51-.09c-.552 0-.99.048-1.314.144-.312.084-.588.276-.828.576-.24.3-.402.72-.486 1.26-.084.528-.126 1.248-.126 2.16 0 1.548.144 2.61.432 3.186.288.576.822.864 1.602.864.72 0 1.464-.21 2.232-.63v-4.428h2.646zM224.185 443h-2.898l-.936-3.798c-.12-.396-.282-.666-.486-.81-.192-.156-.474-.234-.846-.234l-1.926-.018V443h-2.7v-12.42c1.116-.108 2.694-.162 4.734-.162 1.668 0 2.85.264 3.546.792.696.528 1.044 1.488 1.044 2.88 0 .912-.186 1.626-.558 2.142-.36.516-.966.828-1.818.936v.09c.948.216 1.536.84 1.764 1.872l1.08 3.87zm-7.092-6.966h1.98c.72 0 1.212-.12 1.476-.36.264-.252.396-.72.396-1.404 0-.684-.132-1.146-.396-1.386-.252-.24-.744-.36-1.476-.36l-1.98.018v3.492zm16.498 3.708h-4.266l-.9 3.258h-2.808l3.582-11.7a.86.86 0 01.342-.522c.18-.132.384-.198.612-.198h2.592c.516 0 .834.24.954.72l3.582 11.7h-2.79l-.9-3.258zm-.594-2.124l-1.044-3.798c-.144-.6-.228-.99-.252-1.17h-.486a25.423 25.423 0 01-.27 1.17l-1.044 3.798h3.096zm13.345-1.098v.072c.924.084 1.584.402 1.98.954.396.54.594 1.326.594 2.358 0 1.248-.318 2.1-.954 2.556-.636.456-1.722.684-3.258.684-2.304 0-4.05-.048-5.238-.144v-12.42c1.068-.096 2.622-.144 4.662-.144 1.656 0 2.802.228 3.438.684.636.444.954 1.296.954 2.556 0 .9-.174 1.584-.522 2.052-.336.456-.888.72-1.656.792zm-4.194-.864h1.998c.672 0 1.128-.108 1.368-.324.252-.216.378-.642.378-1.278 0-.624-.132-1.038-.396-1.242-.264-.204-.762-.306-1.494-.306l-1.854-.018v3.168zm0 5.418h2.088c.756 0 1.266-.108 1.53-.324.264-.228.396-.684.396-1.368 0-.744-.138-1.242-.414-1.494-.276-.264-.804-.402-1.584-.414h-2.016v3.6zm12.433-5.724l-.27 3.708h-2.088l-.288-3.708v-4.86h2.646v4.86zm-1.62 4.932h.612c.348 0 .588.066.72.198.144.132.216.372.216.72v.864c0 .348-.072.594-.216.738-.132.132-.372.198-.72.198h-.612c-.348 0-.594-.066-.738-.198-.132-.144-.198-.39-.198-.738v-.864c0-.348.066-.588.198-.72.144-.132.39-.198.738-.198z" fill="#fff"/><defs><filter id="filter0_d" x=".701" y="76.226" width="432.898" height="274.316" filterUnits="userSpaceOnUse" color-interpolation-filters="sRGB"><feFlood flood-opacity="0" result="BackgroundImageFix"/><feColorMatrix in="SourceAlpha" values="0 0 0 0 0 0 0 0 0 0 0 0 0 0 0 0 0 0 127 0"/><feOffset dy="23"/><feGaussianBlur stdDeviation="14"/><feColorMatrix values="0 0 0 0 0.425868 0 0 0 0 0.598718 0 0 0 0 0.929167 0 0 0 0.4 0"/><feBlend in2="BackgroundImageFix" result="effect1_dropShadow"/><feBlend in="SourceGraphic" in2="effect1_dropShadow" result="shape"/></filter><filter id="filter1_d" x="123.462" y="35.036" width="103.881" height="165.633" filterUnits="userSpaceOnUse" color-interpolation-filters="sRGB"><feFlood flood-opacity="0" result="BackgroundImageFix"/><feColorMatrix in="SourceAlpha" values="0 0 0 0 0 0 0 0 0 0 0 0 0 0 0 0 0 0 127 0"/><feOffset dy="9"/><feGaussianBlur stdDeviation="10"/><feColorMatrix values="0 0 0 0 0.425868 0 0 0 0 0.598718 0 0 0 0 0.929167 0 0 0 0.8 0"/><feBlend in2="BackgroundImageFix" result="effect1_dropShadow"/><feBlend in="SourceGraphic" in2="effect1_dropShadow" result="shape"/></filter><filter id="filter2_d" x="219.172" y="180.729" width="94.467" height="72.501" filterUnits="userSpaceOnUse" color-interpolation-filters="sRGB"><feFlood flood-opacity="0" result="BackgroundImageFix"/><feColorMatrix in="SourceAlpha" values="0 0 0 0 0 0 0 0 0 0 0 0 0 0 0 0 0 0 127 0"/><feOffset dy="9"/><feGaussianBlur stdDeviation="10"/><feColorMatrix values="0 0 0 0 0.425868 0 0 0 0 0.598718 0 0 0 0 0.929167 0 0 0 0.8 0"/><feBlend in2="BackgroundImageFix" result="effect1_dropShadow"/><feBlend in="SourceGraphic" in2="effect1_dropShadow" result="shape"/></filter><filter id="filter3_d" x="126.601" y="222.868" width="96.708" height="73.846" filterUnits="userSpaceOnUse" color-interpolation-filters="sRGB"><feFlood flood-opacity="0" result="BackgroundImageFix"/><feColorMatrix in="SourceAlpha" values="0 0 0 0 0 0 0 0 0 0 0 0 0 0 0 0 0 0 127 0"/><feOffset dy="9"/><feGaussianBlur stdDeviation="10"/><feColorMatrix values="0 0 0 0 0.425868 0 0 0 0 0.598718 0 0 0 0 0.929167 0 0 0 0.8 0"/><feBlend in2="BackgroundImageFix" result="effect1_dropShadow"/><feBlend in="SourceGraphic" in2="effect1_dropShadow" result="shape"/></filter><filter id="filter4_d" x="256.554" y=".572" width="89.892" height="116.728" filterUnits="userSpaceOnUse" color-interpolation-filters="sRGB"><feFlood flood-opacity="0" result="BackgroundImageFix"/><feColorMatrix in="SourceAlpha" values="0 0 0 0 0 0 0 0 0 0 0 0 0 0 0 0 0 0 127 0"/><feOffset dy="9"/><feGaussianBlur stdDeviation="10"/><feColorMatrix values="0 0 0 0 0.425868 0 0 0 0 0.598718 0 0 0 0 0.929167 0 0 0 0.8 0"/><feBlend in2="BackgroundImageFix" result="effect1_dropShadow"/><feBlend in="SourceGraphic" in2="effect1_dropShadow" result="shape"/></filter><filter id="filter5_d" x="39.168" y="363.28" width="357.722" height="67.49" filterUnits="userSpaceOnUse" color-interpolation-filters="sRGB"><feFlood flood-opacity="0" result="BackgroundImageFix"/><feColorMatrix in="SourceAlpha" values="0 0 0 0 0 0 0 0 0 0 0 0 0 0 0 0 0 0 127 0"/><feOffset dy="7"/><feGaussianBlur stdDeviation="7"/><feColorMatrix values="0 0 0 0 0.330191 0 0 0 0 0.346794 0 0 0 0 0.595833 0 0 0 0.36 0"/><feBlend in2="BackgroundImageFix" result="effect1_dropShadow"/><feBlend in="SourceGraphic" in2="effect1_dropShadow" result="shape"/></filter></defs></svg>