<svg width="17" height="17" fill="none" xmlns="http://www.w3.org/2000/svg"><path d="M12.688 8.095v.5h1.664c.79 0 1.44.647 1.44 1.524s-.65 1.524-1.44 1.524h-1.664v3.738c0 .635-.494 1.119-1.051 1.119H9.189v-.714c0-1.47-1.135-2.686-2.595-2.686C5.134 13.1 4 14.316 4 15.786v.714H1.552C.994 16.5.5 16.016.5 15.381v-2.576h.664c1.46 0 2.594-1.216 2.594-2.686S2.623 7.433 1.164 7.433H.5V4.857c0-.634.494-1.119 1.052-1.119h3.603V2.024c0-.878.65-1.524 1.44-1.524.79 0 1.439.646 1.439 1.524v1.714h3.603c.557 0 1.051.485 1.051 1.12v3.237z" fill="url(#paint0_linear)" stroke="url(#paint1_linear)"/><defs><linearGradient id="paint0_linear" x1="0" y1="0" x2="16.985" y2="16.277" gradientUnits="userSpaceOnUse"><stop stop-color="#E36FA6"/><stop offset="1" stop-color="#EC368C"/></linearGradient><linearGradient id="paint1_linear" x1="0" y1="0" x2="16.985" y2="16.277" gradientUnits="userSpaceOnUse"><stop stop-color="#E36FA6"/><stop offset="1" stop-color="#EC368C"/></linearGradient></defs></svg>