<svg width="21" height="20" fill="none" xmlns="http://www.w3.org/2000/svg"><path fill-rule="evenodd" clip-rule="evenodd" d="M20.269 6.99V3.332a1.15 1.15 0 00-2.3 0v.373a10.178 10.178 0 00-2.057-1.897A10.075 10.075 0 0010.134 0C8.056 0 6.058.625 4.356 1.808A10.12 10.12 0 00.694 6.442a1.15 1.15 0 102.142.839 7.791 7.791 0 017.298-4.98 7.783 7.783 0 016.557 3.539h-1.23a1.15 1.15 0 000 2.3h3.658a1.15 1.15 0 001.15-1.15zm-2.836 5.73a1.15 1.15 0 112.142.837 10.119 10.119 0 01-3.662 4.635A10.075 10.075 0 0110.133 20c-2.078 0-4.076-.625-5.778-1.808A10.18 10.18 0 012.3 16.295v.501a1.15 1.15 0 11-2.3 0v-3.658c0-.635.515-1.15 1.15-1.15h3.658a1.15 1.15 0 110 2.3H3.66a7.784 7.784 0 006.473 3.412 7.79 7.79 0 007.299-4.98z" fill="#29D9A9"/></svg>