<svg width="18" height="17" fill="none" xmlns="http://www.w3.org/2000/svg"><path d="M17.584 6.423a.937.937 0 00-.806-.647l-5.09-.465L9.678.573a.937.937 0 00-1.725 0L5.942 5.31l-5.09.465a.94.94 0 00-.806.647.948.948 0 00.273 1.003l3.847 3.394-1.134 5.027A.946.946 0 003.946 17a.93.93 0 00.48-.134l4.389-2.64 4.387 2.64a.932.932 0 001.031-.046.946.946 0 00.364-.973l-1.134-5.027 3.847-3.394a.948.948 0 00.274-1.003z" fill="url(#paint0_linear)"/><defs><linearGradient id="paint0_linear" x1="0" y1="0" x2="16.989" y2="17.618" gradientUnits="userSpaceOnUse"><stop stop-color="#E36FA6"/><stop offset="1" stop-color="#EC368C"/></linearGradient></defs></svg>