<svg width="19" height="19" fill="none" xmlns="http://www.w3.org/2000/svg"><path d="M16.3 6.95H8.65a1.7 1.7 0 00-1.7 1.7v7.65a1.7 1.7 0 001.7 1.7h7.65a1.7 1.7 0 001.7-1.7V8.65a1.7 1.7 0 00-1.7-1.7z" stroke="url(#paint0_linear)" stroke-width="2" stroke-linecap="round" stroke-linejoin="round"/><path d="M3.55 12.05H2.7a1.7 1.7 0 01-1.7-1.7V2.7A1.7 1.7 0 012.7 1h7.65a1.7 1.7 0 011.7 1.7v.85" stroke="url(#paint1_linear)" stroke-width="2" stroke-linecap="round" stroke-linejoin="round"/><defs><linearGradient id="paint0_linear" x1="6.95" y1="6.95" x2="18" y2="18" gradientUnits="userSpaceOnUse"><stop stop-color="#E36FA6"/><stop offset="1" stop-color="#EC368C"/></linearGradient><linearGradient id="paint1_linear" x1="1" y1="1" x2="12.05" y2="12.05" gradientUnits="userSpaceOnUse"><stop stop-color="#E36FA6"/><stop offset="1" stop-color="#EC368C"/></linearGradient></defs></svg>