<svg width="166" height="117" fill="none" xmlns="http://www.w3.org/2000/svg"><path d="M5.045 5.641c-.272 0-.53-.025-.772-.076a2.994 2.994 0 01-.683-.228 2.909 2.909 0 01-.59-.38l.493-.593c.214.182.451.32.71.41.258.092.54.137.842.137.408 0 .725-.073.95-.22a.715.715 0 00.338-.631v-.004c0-.193-.052-.345-.155-.456a.88.88 0 00-.396-.251 4.2 4.2 0 00-.675-.16l-.058-.011a6.417 6.417 0 01-.924-.213 1.316 1.316 0 01-.605-.437c-.168-.213-.252-.515-.252-.905V1.62c0-.342.077-.633.233-.874.157-.243.386-.428.686-.555.3-.127.661-.19 1.083-.19a2.87 2.87 0 011.172.258c.19.084.378.19.562.32l-.45.616A2.583 2.583 0 005.91.848 1.831 1.831 0 005.27.73c-.386 0-.686.076-.9.228a.735.735 0 00-.319.639V1.6c0 .19.055.34.163.449.112.109.249.19.412.243.165.05.394.104.686.16l.028.007a1.377 1.377 0 00.116.019c.341.069.626.15.854.244.23.093.421.245.574.456.155.208.233.493.233.855v.008c0 .337-.082.626-.245.866-.163.239-.4.421-.71.548-.308.124-.68.186-1.117.186zM14.209.057h.741v5.527h-.772v-4.14l.039.244-1.39 3.128h-.55l-1.389-3.052.039-.32v4.14h-.772V.057h.74l1.657 3.65L14.21.056zm5.583 0h.675l2.08 5.527h-.853L20.13 1.125l-1.564 4.459h-.853l2.08-5.527zm-1.12 3.577h2.967v.737h-2.968v-.737zm7.06-1.125h1.925c.15 0 .283-.036.4-.107a.695.695 0 00.267-.3c.065-.132.097-.282.097-.452a.99.99 0 00-.097-.449.691.691 0 00-.267-.304.74.74 0 00-.4-.106h-1.924V.053h1.893c.326 0 .612.066.857.198.249.132.44.32.575.562.137.241.205.52.205.837 0 .317-.068.597-.205.84-.137.24-.33.427-.578.559-.246.131-.53.197-.854.197h-1.893V2.51zM25.388.053h.792v5.531h-.792V.054zm1.882 3.022l.788-.175L29.5 5.584h-.939L27.27 3.075zM33.376.51h.792v5.075h-.792V.509zM31.781.057h3.981v.737h-3.98V.057zm11.5 5.527h-.79V.057h.79v5.527zM46.666.057h.718L50.14 4.33l-.093.098V.057h.784V5.58h-.726l-2.75-4.208.093-.099V5.58h-.784V.057zm7.123 0h.862l1.354 4.333L57.358.057h.861L56.38 5.584h-.752L53.788.057zm7.272 0h.791v5.527h-.791V.057zm.384 4.79h3.24v.737h-3.24v-.737zm0-2.376h2.813v.737h-2.813v-.737zm0-2.414h3.24v.737h-3.24V.057zm8.046 5.584c-.271 0-.528-.025-.771-.076a2.991 2.991 0 01-.683-.228 2.905 2.905 0 01-.59-.38l.493-.593c.214.182.451.32.71.41.259.092.539.137.841.137.41 0 .726-.073.951-.22a.715.715 0 00.338-.631v-.004c0-.193-.052-.345-.156-.456a.877.877 0 00-.395-.251 4.198 4.198 0 00-.675-.16l-.059-.011a6.422 6.422 0 01-.923-.213 1.315 1.315 0 01-.605-.437c-.168-.213-.252-.515-.252-.905V1.62c0-.342.077-.633.232-.874.158-.243.387-.428.687-.555.3-.127.661-.19 1.083-.19a2.864 2.864 0 011.172.258c.19.084.378.19.562.32l-.45.616a2.586 2.586 0 00-.644-.346 1.829 1.829 0 00-.64-.118c-.386 0-.686.076-.9.228a.735.735 0 00-.319.639V1.6c0 .19.055.34.163.449.112.109.249.19.412.243.165.05.394.104.686.16a.52.52 0 01.028.007 1.296 1.296 0 00.116.019c.341.069.626.15.854.244.23.093.42.245.574.456.155.208.232.493.232.855v.008c0 .337-.081.626-.244.866-.163.239-.4.421-.71.548-.308.124-.68.186-1.118.186zM75.497.509h.791v5.075h-.791V.509zM73.902.057h3.98v.737h-3.98V.057zm10.798 0h.74v5.527h-.771v-4.14l.039.244-1.39 3.128h-.55l-1.389-3.052.038-.32v4.14h-.772V.057h.741l1.657 3.65L84.7.056zm4.125 0h.79v5.527h-.79V.057zm.384 4.79h3.239v.737h-3.24v-.737zm0-2.376h2.813v.737h-2.813v-.737zm0-2.414h3.239v.737h-3.24V.057zm6.351 0h.718l2.759 4.273-.094.098V.057h.784V5.58h-.725L96.25 1.372l.093-.099V5.58h-.784V.057zm8.679.452h.792v5.075h-.792V.509zm-1.594-.452h3.981v.737h-3.981V.057zm8.284 5.584a3.75 3.75 0 01-.772-.076 3.004 3.004 0 01-.684-.228 2.9 2.9 0 01-.589-.38l.493-.593c.214.182.451.32.709.41.259.092.54.137.843.137.408 0 .725-.073.95-.22a.716.716 0 00.338-.631v-.004c0-.193-.052-.345-.155-.456a.887.887 0 00-.396-.251 4.228 4.228 0 00-.676-.16l-.058-.011a6.431 6.431 0 01-.923-.213 1.311 1.311 0 01-.605-.437c-.168-.213-.253-.515-.253-.905V1.62c0-.342.078-.633.234-.874a1.47 1.47 0 01.686-.555c.3-.127.661-.19 1.082-.19a2.843 2.843 0 011.172.258c.192.084.379.19.563.32l-.45.616a2.6 2.6 0 00-.644-.346 1.834 1.834 0 00-.641-.118c-.385 0-.685.076-.9.228a.735.735 0 00-.318.639V1.6c0 .19.055.34.163.449.112.109.249.19.412.243.165.05.394.104.686.16a.321.321 0 01.027.007c.011 0 .021.002.032.004a1.134 1.134 0 00.085.015c.341.069.626.15.853.244.23.093.422.245.575.456.155.208.232.493.232.855v.008c0 .337-.081.626-.244.866-.163.239-.4.421-.71.548-.308.124-.68.186-1.117.186z" fill="#62637A"/><g filter="url(#filter0_d)"><path d="M3.485 50.223l13.675-16.82c.79-.963 1.402-1.958 1.834-2.987.45-1.045.674-2.015.674-2.911v-.05c0-1.443-.458-2.563-1.375-3.359-.918-.796-2.221-1.194-3.911-1.194-1.6 0-2.895.44-3.884 1.319-.989.862-1.591 2.09-1.807 3.682v.025H3v-.025c.324-2.073.98-3.84 1.969-5.3a9.769 9.769 0 013.884-3.359c1.582-.78 3.407-1.17 5.475-1.17 2.337 0 4.333.374 5.987 1.12 1.655.73 2.913 1.8 3.776 3.21s1.295 3.11 1.295 5.101v.025c0 1.277-.288 2.613-.863 4.006-.576 1.393-1.376 2.737-2.4 4.03L10.767 49.8h14.834v4.828H3.485v-4.404zM43.807 55c-3.668 0-6.455-.904-8.361-2.712-1.888-1.808-2.832-4.33-2.832-7.564V28.276c0-3.25.953-5.772 2.86-7.564C37.378 18.904 40.156 18 43.806 18c3.668 0 6.446.896 8.334 2.687C54.047 22.48 55 25.01 55 28.277v16.447c0 3.25-.953 5.78-2.859 7.589C50.235 54.104 47.457 55 43.807 55zm0-4.827c1.942 0 3.371-.465 4.288-1.394.935-.945 1.403-2.297 1.403-4.055V28.276c0-1.758-.459-3.102-1.375-4.03-.918-.946-2.356-1.419-4.316-1.419s-3.398.473-4.315 1.418c-.917.93-1.376 2.273-1.376 4.031v16.448c0 1.758.459 3.11 1.376 4.055.935.93 2.373 1.394 4.315 1.394z" fill="url(#paint0_linear)"/><path d="M3.485 50.223l13.675-16.82c.79-.963 1.402-1.958 1.834-2.987.45-1.045.674-2.015.674-2.911v-.05c0-1.443-.458-2.563-1.375-3.359-.918-.796-2.221-1.194-3.911-1.194-1.6 0-2.895.44-3.884 1.319-.989.862-1.591 2.09-1.807 3.682v.025H3v-.025c.324-2.073.98-3.84 1.969-5.3a9.769 9.769 0 013.884-3.359c1.582-.78 3.407-1.17 5.475-1.17 2.337 0 4.333.374 5.987 1.12 1.655.73 2.913 1.8 3.776 3.21s1.295 3.11 1.295 5.101v.025c0 1.277-.288 2.613-.863 4.006-.576 1.393-1.376 2.737-2.4 4.03L10.767 49.8h14.834v4.828H3.485v-4.404zM43.807 55c-3.668 0-6.455-.904-8.361-2.712-1.888-1.808-2.832-4.33-2.832-7.564V28.276c0-3.25.953-5.772 2.86-7.564C37.378 18.904 40.156 18 43.806 18c3.668 0 6.446.896 8.334 2.687C54.047 22.48 55 25.01 55 28.277v16.447c0 3.25-.953 5.78-2.859 7.589C50.235 54.104 47.457 55 43.807 55zm0-4.827c1.942 0 3.371-.465 4.288-1.394.935-.945 1.403-2.297 1.403-4.055V28.276c0-1.758-.459-3.102-1.375-4.03-.918-.946-2.356-1.419-4.316-1.419s-3.398.473-4.315 1.418c-.917.93-1.376 2.273-1.376 4.031v16.448c0 1.758.459 3.11 1.376 4.055.935.93 2.373 1.394 4.315 1.394z" stroke="url(#paint1_linear)" stroke-width="1.5"/></g><g filter="url(#filter1_d)"><rect x="65" y="13" width="65" height="48" rx="7" fill="#fff"/></g><g filter="url(#filter2_d)"><path d="M75.2 40.026l1.939 1.789a.716.716 0 00.485.185.715.715 0 00.484-.185l3.392-3.131 3.392 3.13a.715.715 0 00.484.186.715.715 0 00.485-.185l1.938-1.79a.599.599 0 000-.894L84.407 36l3.392-3.131a.609.609 0 00.201-.447.609.609 0 00-.2-.448l-1.939-1.789a.726.726 0 00-.97 0L81.5 33.316l-3.392-3.13a.726.726 0 00-.969 0l-1.938 1.788a.609.609 0 00-.201.448c0 .167.072.328.2.447L78.594 36 75.2 39.131a.599.599 0 000 .895z" fill="#28293D"/></g><g filter="url(#filter3_d)"><path d="M100.272 51.262l.381-3.82c1.469.086 3.658.13 6.568.13 2.429 0 4.11-.608 5.042-1.824.932-1.245 1.469-3.633 1.61-7.164-.932.984-1.921 1.679-2.966 2.084-1.045.376-2.344.565-3.898.565-5.339 0-8.008-3.228-8.008-9.683-.029-3.676.706-6.353 2.203-8.032 1.497-1.679 4.039-2.518 7.627-2.518 1.779 0 3.248.16 4.407.478 1.186.318 2.16.81 2.923 1.476.791.637 1.384 1.592 1.78 2.865.395 1.245.664 2.663.805 4.255.169 1.563.254 3.59.254 6.079 0 3.328-.212 6.035-.636 8.119-.395 2.055-1.101 3.661-2.118 4.819-.989 1.129-2.175 1.896-3.559 2.301-1.356.405-3.164.608-5.424.608-2.74 0-5.07-.246-6.991-.738zm8.262-14.198c.989 0 1.865-.144 2.627-.434.791-.318 1.709-.868 2.754-1.65 0-1.707-.042-3.024-.127-3.95a19.164 19.164 0 00-.339-2.649c-.169-.84-.452-1.433-.847-1.78-.396-.376-.89-.666-1.483-.868-.593-.203-1.37-.304-2.33-.304-1.95 0-3.249.477-3.899 1.432-.621.927-.918 2.475-.889 4.646-.029 1.94.282 3.358.932 4.255.678.868 1.878 1.302 3.601 1.302z" fill="#28293D"/></g><defs><filter id="filter0_d" x=".25" y="16.25" width="61.5" height="46.5" filterUnits="userSpaceOnUse" color-interpolation-filters="sRGB"><feFlood flood-opacity="0" result="BackgroundImageFix"/><feColorMatrix in="SourceAlpha" values="0 0 0 0 0 0 0 0 0 0 0 0 0 0 0 0 0 0 127 0"/><feOffset dx="2" dy="3"/><feGaussianBlur stdDeviation="2"/><feColorMatrix values="0 0 0 0 0.984314 0 0 0 0 0 0 0 0 0 0.596078 0 0 0 0.22 0"/><feBlend in2="BackgroundImageFix" result="effect1_dropShadow"/><feBlend in="SourceGraphic" in2="effect1_dropShadow" result="shape"/></filter><filter id="filter1_d" x="41" y="9" width="125" height="108" filterUnits="userSpaceOnUse" color-interpolation-filters="sRGB"><feFlood flood-opacity="0" result="BackgroundImageFix"/><feColorMatrix in="SourceAlpha" values="0 0 0 0 0 0 0 0 0 0 0 0 0 0 0 0 0 0 127 0"/><feOffset dx="6" dy="26"/><feGaussianBlur stdDeviation="15"/><feColorMatrix values="0 0 0 0 0.429722 0 0 0 0 0.579784 0 0 0 0 0.866667 0 0 0 0.25 0"/><feBlend in2="BackgroundImageFix" result="effect1_dropShadow"/><feBlend in="SourceGraphic" in2="effect1_dropShadow" result="shape"/></filter><filter id="filter2_d" x="73" y="29" width="21" height="20" filterUnits="userSpaceOnUse" color-interpolation-filters="sRGB"><feFlood flood-opacity="0" result="BackgroundImageFix"/><feColorMatrix in="SourceAlpha" values="0 0 0 0 0 0 0 0 0 0 0 0 0 0 0 0 0 0 127 0"/><feOffset dx="2" dy="3"/><feGaussianBlur stdDeviation="2"/><feColorMatrix values="0 0 0 0 0.229167 0 0 0 0 0.229167 0 0 0 0 0.229167 0 0 0 0.22 0"/><feBlend in2="BackgroundImageFix" result="effect1_dropShadow"/><feBlend in="SourceGraphic" in2="effect1_dropShadow" result="shape"/></filter><filter id="filter3_d" x="97" y="20" width="28" height="39" filterUnits="userSpaceOnUse" color-interpolation-filters="sRGB"><feFlood flood-opacity="0" result="BackgroundImageFix"/><feColorMatrix in="SourceAlpha" values="0 0 0 0 0 0 0 0 0 0 0 0 0 0 0 0 0 0 127 0"/><feOffset dx="2" dy="3"/><feGaussianBlur stdDeviation="2"/><feColorMatrix values="0 0 0 0 0.229167 0 0 0 0 0.229167 0 0 0 0 0.229167 0 0 0 0.22 0"/><feBlend in2="BackgroundImageFix" result="effect1_dropShadow"/><feBlend in="SourceGraphic" in2="effect1_dropShadow" result="shape"/></filter><linearGradient id="paint0_linear" x1="3" y1="18" x2="37.956" y2="67.127" gradientUnits="userSpaceOnUse"><stop stop-color="#E36FA6"/><stop offset="1" stop-color="#EC368C"/></linearGradient><linearGradient id="paint1_linear" x1="3" y1="18" x2="37.956" y2="67.127" gradientUnits="userSpaceOnUse"><stop stop-color="#E36FA6"/><stop offset="1" stop-color="#EC368C"/></linearGradient></defs></svg>