<svg width="150" height="154" fill="none" xmlns="http://www.w3.org/2000/svg"><g filter="url(#filter0_d)"><path d="M41.953 85.301c-.428-.771-.943-1.371-1.543-1.714-3.858-2.83-7.116-5.23-10.03-8.83 1.457 9.944 6.687 19.118 14.574 25.376-2.229-5.23-2.572-13.031-2.572-13.031.086-.6-.086-1.286-.429-1.8z" fill="url(#paint0_linear)"/><path d="M86.449 96.79c-.772.428-1.372.942-1.715 1.543-2.829 3.858-5.23 7.116-8.83 10.03 9.945-1.457 19.118-6.687 25.377-14.574-5.23 2.229-13.032 2.572-13.032 2.572-.6 0-1.286.171-1.8.428z" fill="url(#paint1_linear)"/><path d="M79.933 95.76c-3.172-.342-3.172-.342-6.515-.857.857 1.715.943 3.601.085 5.144-1.714 3.344-6.172 6.259-12.86 4.459-6.687-1.801-9.516-6.602-9.345-10.374.086-1.715 1.03-3.344 2.658-4.373-3.172-1.2-3.172-1.2-6.087-2.486-1.286-.6-2.486-.514-2.572 1.2.515 6.173.858 8.317 1.372 10.288.686 2.658 1.2 3.858 3.515 4.973 3.258 1.543 6.259 2.743 9.43 3.601 3.259.857 6.43 1.286 10.031 1.629 2.572.171 3.601-.515 5.487-2.487 1.458-1.457 2.744-3.172 6.345-8.23.943-1.715-.086-2.4-1.544-2.486z" fill="url(#paint2_linear)"/><path d="M50.527 44.15c-6.173.514-8.316.857-10.288 1.371-2.658.686-3.858 1.2-4.973 3.515-1.543 3.258-2.743 6.259-3.6 9.43-.858 3.259-1.287 6.43-1.63 10.032-.17 2.572.515 3.6 2.487 5.487 1.457 1.457 3.172 2.743 8.23 6.344 1.543.857 2.23-.257 2.315-1.629.343-3.172.343-3.172.857-6.516-1.714.858-3.6.943-5.144.086-3.343-1.715-6.087-6.602-4.372-13.289 1.8-6.687 6.516-9.087 10.288-8.916 1.715.086 3.343 1.029 4.372 2.658 1.2-3.172 1.2-3.172 2.487-6.087.771-1.2.686-2.4-1.03-2.487z" fill="url(#paint3_linear)"/><path d="M107.368 63.61c-1.457-1.457-3.172-2.743-8.23-6.343-1.544-.858-2.23.257-2.315 1.628-.343 3.173-.343 3.173-.857 6.516 1.714-.857 3.6-.943 5.143-.085 3.344 1.714 6.259 6.172 4.459 12.86-1.801 6.687-6.602 9.516-10.374 9.344-1.715-.085-3.344-1.028-4.373-2.657-1.2 3.172-1.2 3.172-2.486 6.087-.6 1.286-.514 2.486 1.2 2.572 6.173-.515 8.317-.858 10.288-1.372 2.658-.686 3.858-1.2 4.973-3.515 1.543-3.258 2.743-6.258 3.601-9.43.857-3.258 1.286-6.43 1.629-10.032.085-2.657-.686-3.686-2.658-5.572z" fill="url(#paint4_linear)"/><path d="M92.88 33.433c-1.115-2.572-1.801-3.601-4.287-4.287-3.43-.943-6.602-1.629-9.946-1.972-3.343-.343-6.515-.171-10.116.172-2.572.257-3.43 1.114-4.973 3.429-1.114 1.715-2.229 3.6-4.8 9.174-.515 1.628.6 2.143 1.971 2.057 3.172-.171 3.172-.171 6.602-.257-1.115-1.543-1.544-3.344-1.03-5.058 1.115-3.601 6.516-6.259 12.09-5.745 5.572.515 10.373 4.03 10.887 7.802.257 1.715-.514 3.43-1.886 4.801 3.258.686 3.258.686 6.43 1.372 1.372.343 2.572.086 2.315-1.629-1.8-5.916-2.486-7.973-3.258-9.86z" fill="url(#paint5_linear)"/><path d="M38.696 42.52c4.972-2.657 12.774-3.6 12.774-3.6.514-.086 1.2-.258 1.715-.6.771-.515 1.286-1.03 1.629-1.63 2.572-4.115 4.715-7.458 8.059-10.716-9.86 2.229-18.519 8.23-24.177 16.546z" fill="url(#paint6_linear)"/><path d="M103.338 34.29c2.229 5.23 2.572 13.032 2.572 13.032 0 .514.172 1.2.515 1.714.428.772.943 1.372 1.543 1.715 3.858 2.829 7.116 5.23 10.031 8.83-1.543-9.859-6.773-18.947-14.661-25.291z" fill="url(#paint7_linear)"/><path d="M112.598 15l-1.715 5.144-5.144 1.715 5.144 1.629 1.715 5.144 1.629-5.144 5.144-1.63-5.144-1.714L112.598 15z" fill="url(#paint8_linear)"/><path d="M98.452 23.059l-1.2 3.686-3.601 1.115 3.6 1.2 1.2 3.601 1.201-3.6 3.601-1.201-3.601-1.115-1.2-3.686z" fill="url(#paint9_linear)"/><path d="M39.039 94.132c1.8 2.143 3.772 4.2 6 5.915-.685-1.543-1.114-3.257-1.542-4.972-1.458-.343-3.001-.6-4.458-.943z" fill="url(#paint10_linear)"/><path d="M86.449 96.79c-.772.428-1.372.942-1.715 1.543-2.829 3.858-5.23 7.116-8.83 10.03 9.945-1.457 19.118-6.687 25.377-14.574-5.23 2.229-13.032 2.572-13.032 2.572-.6 0-1.286.171-1.8.428z" fill="url(#paint11_linear)"/><path d="M58.671 96.36c-1.371 0-2.743 0-4.115-.085.772 5.744 13.203 8.745 15.775 3.172.514-1.2.343-2.572-.429-3.772-3.686.429-7.458.686-11.23.686z" fill="url(#paint12_linear)"/><path d="M95.708 87.53c-2.4 1.286-4.887 2.487-7.544 3.515-.515 1.2-.429 2.4 1.286 2.487 6.172-.515 8.316-.858 10.288-1.372 2.657-.686 3.858-1.2 4.972-3.515 1.543-3.258 2.744-6.259 3.601-9.43.086-.43.171-.772.343-1.201a58.765 58.765 0 01-4.801 4.287c-2.143 3.429-5.316 5.144-8.145 5.23z" fill="url(#paint13_linear)"/><path d="M80.019 95.76c-2.915-.342-3.172-.342-5.744-.77-.257 0-.429.085-.686.085.772 1.715.772 3.43 0 4.887-1.715 3.343-6.173 6.258-12.86 4.458-5.573-1.458-8.488-5.058-9.173-8.316-1.8-.172-3.601-.343-5.402-.6.172 1.286.343 2.229.6 3.172.686 2.658 1.2 3.858 3.516 4.972 3.257 1.544 6.258 2.744 9.43 3.601 3.258.857 6.43 1.286 10.031 1.629 2.572.172 3.6-.514 5.487-2.486 1.457-1.458 2.743-3.172 6.344-8.23.858-1.63-.171-2.315-1.543-2.401z" fill="url(#paint14_linear)"/><path d="M35.266 49.036c-1.543 3.258-2.743 6.258-3.6 9.43-.858 3.258-1.287 6.43-1.63 10.032-.171 1.971.258 3.086 1.372 4.286.343-3.6 1.286-7.202 2.572-10.63.086-1.03.257-2.058.515-3.087 1.2-4.373 3.515-6.859 6.087-8.06 1.8-2.314 3.943-4.457 6.258-6.43-3.515.344-5.144.601-6.687 1.03-2.572.6-3.772 1.114-4.887 3.429z" fill="url(#paint15_linear)"/><path d="M31.237 75.614c-.257-.344-.515-.6-.858-.944.258 1.544.515 3.001.944 4.459-.086-.944-.086-1.8-.086-2.744v-.772z" fill="url(#paint16_linear)"/><path d="M38.696 42.52c4.972-2.657 12.774-3.6 12.774-3.6.514-.086 1.2-.258 1.715-.6.771-.515 1.286-1.03 1.629-1.63 2.572-4.115 4.715-7.458 8.059-10.716-9.86 2.229-18.519 8.23-24.177 16.546z" fill="url(#paint17_linear)"/><path d="M68.53 27.345c-2.571.258-3.428 1.115-4.972 3.43-.771 1.114-1.457 2.315-2.572 4.544 7.202-3.515 15.432-6.002 24.263-7.03a57.501 57.501 0 00-6.516-1.115c-3.344-.257-6.601-.171-10.202.171z" fill="url(#paint18_linear)"/><path d="M69.731 38.234c-.6 1.457-.343 3.086.858 4.458 1.028 1.286 1.971 2.143 1.628 3.172-.257.857-1.543 1.029-2.915.772-5.4-1.03-5.4-1.03-10.545-1.8-1.543-.258-3.343.857-3.943 2.228-1.887 4.801-1.887 4.801-3.687 10.031-.429 1.372-1.286 2.315-2.143 2.144-1.115-.258-1.372-1.458-1.972-3.001-.686-1.715-1.886-2.744-3.43-3-6.43-.687-10.116 13.202-4.2 15.86 1.457.6 3.086.257 4.458-.858 1.286-1.028 2.143-1.971 3.172-1.628.428.171.686.514.771 1.114 7.116-9.002 18.605-15.86 32.15-18.861-.343-.343-.428-.686-.343-1.115.258-1.114 1.458-1.371 2.915-1.972 1.715-.6 2.744-1.886 3.001-3.429.686-6.43-13.117-10.03-15.775-4.115z" fill="url(#paint19_linear)"/><path d="M103.338 34.29c2.229 5.23 2.572 13.032 2.572 13.032 0 .171 0 .342.086.6a62.125 62.125 0 019.174 1.972 40.472 40.472 0 00-11.832-15.604z" fill="url(#paint20_linear)"/><path d="M38.867 72.356c-2.83-1.458-5.23-5.059-4.887-10.203a37.804 37.804 0 00-2.572 10.631c.343.429.686.858 1.2 1.286 1.458 1.458 3.173 2.744 8.23 6.345.087.085.172.085.258.171a41.074 41.074 0 012.658-6.773l.257-1.543c-1.715.857-3.6.943-5.144.086z" fill="url(#paint21_linear)"/><path d="M50.527 44.15c-1.372.085-2.572.257-3.601.342-2.315 1.972-4.372 4.201-6.259 6.43a8.242 8.242 0 014.201-.857c1.715.086 3.344 1.029 4.373 2.658 1.2-3.172 1.2-3.172 2.486-6.087.6-1.2.515-2.4-1.2-2.487z" fill="url(#paint22_linear)"/><path d="M40.41 83.501c-3.515-2.572-6.43-4.801-9.173-7.888v.686c0 .944 0 1.886.086 2.744a41.05 41.05 0 009.259 16.804c-.429-2.144-.686-4.373-.686-6.602 0-1.886.171-3.858.514-5.744z" fill="url(#paint23_linear)"/><path d="M92.88 33.433c-1.115-2.572-1.801-3.601-4.287-4.287-1.2-.343-2.315-.6-3.43-.857-8.83 1.114-17.06 3.515-24.262 7.03-.6 1.2-1.286 2.657-2.23 4.63-.514 1.628.6 2.143 1.972 2.057 3.173-.172 3.173-.172 6.602-.257-1.115-1.544-1.543-3.344-1.029-5.059 1.115-3.6 6.516-6.258 12.089-5.744 5.572.515 10.373 4.03 10.888 7.802.257 1.715-.515 3.43-1.886 4.801 3.257.686 3.257.686 6.43 1.372 1.371.343 2.572.086 2.314-1.63-1.714-5.915-2.4-7.972-3.172-9.858z" fill="url(#paint24_linear)"/><path d="M103.338 34.29c2.229 5.23 2.572 13.032 2.572 13.032 0 .171 0 .342.086.6a62.125 62.125 0 019.174 1.972 40.472 40.472 0 00-11.832-15.604z" fill="url(#paint25_linear)"/><path d="M100.595 68.584c-1.457-.6-3.086-.258-4.458.857-1.286 1.029-2.143 1.972-3.172 1.629-.857-.257-1.029-1.543-.772-2.915 1.03-5.401 1.03-5.401 1.8-10.545.172-1.544-.857-3.344-2.228-3.944-4.801-1.886-4.801-1.886-10.031-3.687-1.372-.428-2.315-1.286-2.143-2.143.257-1.114 1.457-1.372 2.914-1.972 1.715-.6 2.744-1.886 3.001-3.43.6-6.515-13.203-10.116-15.775-4.2-.6 1.457-.343 3.086.858 4.458 1.028 1.286 1.971 2.143 1.628 3.172-.257.858-1.543 1.029-2.915.772-5.4-1.03-5.4-1.03-10.545-1.8-1.543-.258-3.343.857-3.943 2.228-1.887 4.801-1.887 4.801-3.687 10.031-.429 1.372-1.286 2.315-2.143 2.144-1.115-.258-1.372-1.458-1.972-3.001-.686-1.715-1.886-2.744-3.43-3-6.43-.687-10.116 13.202-4.2 15.86 1.457.6 3.086.257 4.458-.858 1.286-1.028 2.143-1.971 3.172-1.628.857.257 1.029 1.543.771 2.915-1.028 5.4-1.028 5.4-1.8 10.545-.171 1.543.857 3.343 2.23 3.944 4.8 1.886 4.8 1.886 10.03 3.686 1.372.429 2.315 1.286 2.143 2.143-.257 1.115-1.457 1.372-2.915 1.972-1.714.6-2.743 1.886-3 3.43-.686 6.43 13.117 10.116 15.775 4.2.6-1.457.257-3.086-.858-4.458-1.029-1.286-1.972-2.143-1.629-3.172.257-.857 1.543-1.029 2.915-.771 5.401 1.028 5.401 1.028 10.545 1.8 1.544.171 3.344-.857 3.944-2.23 1.886-4.8 1.886-4.8 3.687-10.03.428-1.372 1.286-2.315 2.143-2.143 1.115.257 1.372 1.457 1.972 2.915.6 1.714 1.886 2.743 3.43 3 6.429.6 10.116-13.117 4.2-15.775z" fill="url(#paint26_linear)"/><path d="M69.731 38.234c-.6 1.457-.343 3.086.858 4.458 1.028 1.286 1.971 2.143 1.628 3.172-.257.857-1.543 1.029-2.915.772-5.4-1.03-5.4-1.03-10.545-1.8-1.543-.258-3.343.857-3.943 2.228-1.887 4.801-1.887 4.801-3.687 10.031-.429 1.372-1.286 2.315-2.143 2.144-1.115-.258-1.372-1.458-1.972-3.001-.686-1.715-1.886-2.744-3.43-3-6.43-.687-10.116 13.202-4.2 15.86 1.457.6 3.086.257 4.458-.858 1.286-1.028 2.143-1.971 3.172-1.628.428.171.686.514.771 1.114 7.116-9.002 18.605-15.86 32.15-18.861-.343-.343-.428-.686-.343-1.115.258-1.114 1.458-1.371 2.915-1.972 1.715-.6 2.744-1.886 3.001-3.429.686-6.43-13.117-10.03-15.775-4.115z" fill="url(#paint27_linear)"/></g><defs><linearGradient id="paint0_linear" x1="37.667" y1="74.756" x2="37.667" y2="100.133" gradientUnits="userSpaceOnUse"><stop stop-color="#87AFFF"/><stop offset="1" stop-color="#6698FA"/></linearGradient><linearGradient id="paint1_linear" x1="88.592" y1="93.789" x2="88.592" y2="108.363" gradientUnits="userSpaceOnUse"><stop stop-color="#87AFFF"/><stop offset="1" stop-color="#6698FA"/></linearGradient><linearGradient id="paint2_linear" x1="63.568" y1="86.936" x2="63.568" y2="108.989" gradientUnits="userSpaceOnUse"><stop stop-color="#87AFFF"/><stop offset="1" stop-color="#6698FA"/></linearGradient><linearGradient id="paint3_linear" x1="41.016" y1="44.149" x2="41.016" y2="80.629" gradientUnits="userSpaceOnUse"><stop stop-color="#87AFFF"/><stop offset="1" stop-color="#6698FA"/></linearGradient><linearGradient id="paint4_linear" x1="99.015" y1="56.966" x2="99.015" y2="93.532" gradientUnits="userSpaceOnUse"><stop stop-color="#87AFFF"/><stop offset="1" stop-color="#6698FA"/></linearGradient><linearGradient id="paint5_linear" x1="77.401" y1="26.987" x2="77.401" y2="45.052" gradientUnits="userSpaceOnUse"><stop stop-color="#87AFFF"/><stop offset="1" stop-color="#6698FA"/></linearGradient><linearGradient id="paint6_linear" x1="50.784" y1="25.974" x2="50.784" y2="42.52" gradientUnits="userSpaceOnUse"><stop stop-color="#87AFFF"/><stop offset="1" stop-color="#6698FA"/></linearGradient><linearGradient id="paint7_linear" x1="110.669" y1="34.29" x2="110.669" y2="59.581" gradientUnits="userSpaceOnUse"><stop stop-color="#87AFFF"/><stop offset="1" stop-color="#6698FA"/></linearGradient><linearGradient id="paint8_linear" x1="105.739" y1="15" x2="119.371" y2="28.632" gradientUnits="userSpaceOnUse"><stop stop-color="#E36FA6"/><stop offset="1" stop-color="#EC368C"/></linearGradient><linearGradient id="paint9_linear" x1="93.651" y1="23.059" x2="103.253" y2="32.661" gradientUnits="userSpaceOnUse"><stop stop-color="#E36FA6"/><stop offset="1" stop-color="#EC368C"/></linearGradient><linearGradient id="paint10_linear" x1="42.039" y1="94.132" x2="42.039" y2="100.047" gradientUnits="userSpaceOnUse"><stop stop-color="#87AFFF"/><stop offset="1" stop-color="#6698FA"/></linearGradient><linearGradient id="paint11_linear" x1="88.592" y1="93.789" x2="88.592" y2="108.363" gradientUnits="userSpaceOnUse"><stop stop-color="#87AFFF"/><stop offset="1" stop-color="#6698FA"/></linearGradient><linearGradient id="paint12_linear" x1="62.591" y1="95.675" x2="62.591" y2="102.407" gradientUnits="userSpaceOnUse"><stop stop-color="#87AFFF"/><stop offset="1" stop-color="#6698FA"/></linearGradient><linearGradient id="paint13_linear" x1="98.271" y1="78.014" x2="98.271" y2="93.532" gradientUnits="userSpaceOnUse"><stop stop-color="#87AFFF"/><stop offset="1" stop-color="#6698FA"/></linearGradient><linearGradient id="paint14_linear" x1="64.015" y1="94.989" x2="64.015" y2="108.903" gradientUnits="userSpaceOnUse"><stop stop-color="#87AFFF"/><stop offset="1" stop-color="#6698FA"/></linearGradient><linearGradient id="paint15_linear" x1="38.42" y1="44.578" x2="38.42" y2="72.784" gradientUnits="userSpaceOnUse"><stop stop-color="#87AFFF"/><stop offset="1" stop-color="#6698FA"/></linearGradient><linearGradient id="paint16_linear" x1="30.851" y1="74.67" x2="30.851" y2="79.129" gradientUnits="userSpaceOnUse"><stop stop-color="#87AFFF"/><stop offset="1" stop-color="#6698FA"/></linearGradient><linearGradient id="paint17_linear" x1="50.784" y1="25.974" x2="50.784" y2="42.52" gradientUnits="userSpaceOnUse"><stop stop-color="#87AFFF"/><stop offset="1" stop-color="#6698FA"/></linearGradient><linearGradient id="paint18_linear" x1="73.118" y1="27.024" x2="73.118" y2="35.319" gradientUnits="userSpaceOnUse"><stop stop-color="#87AFFF"/><stop offset="1" stop-color="#6698FA"/></linearGradient><linearGradient id="paint19_linear" x1="60.968" y1="35.232" x2="60.968" y2="69.39" gradientUnits="userSpaceOnUse"><stop stop-color="#87AFFF"/><stop offset="1" stop-color="#6698FA"/></linearGradient><linearGradient id="paint20_linear" x1="109.254" y1="34.29" x2="109.254" y2="49.894" gradientUnits="userSpaceOnUse"><stop stop-color="#87AFFF"/><stop offset="1" stop-color="#6698FA"/></linearGradient><linearGradient id="paint21_linear" x1="37.71" y1="62.153" x2="37.71" y2="80.586" gradientUnits="userSpaceOnUse"><stop stop-color="#87AFFF"/><stop offset="1" stop-color="#6698FA"/></linearGradient><linearGradient id="paint22_linear" x1="46.366" y1="44.149" x2="46.366" y2="52.723" gradientUnits="userSpaceOnUse"><stop stop-color="#87AFFF"/><stop offset="1" stop-color="#6698FA"/></linearGradient><linearGradient id="paint23_linear" x1="35.909" y1="75.614" x2="35.909" y2="95.847" gradientUnits="userSpaceOnUse"><stop stop-color="#87AFFF"/><stop offset="1" stop-color="#6698FA"/></linearGradient><linearGradient id="paint24_linear" x1="77.315" y1="28.289" x2="77.315" y2="45.052" gradientUnits="userSpaceOnUse"><stop stop-color="#87AFFF"/><stop offset="1" stop-color="#6698FA"/></linearGradient><linearGradient id="paint25_linear" x1="109.254" y1="34.29" x2="109.254" y2="49.894" gradientUnits="userSpaceOnUse"><stop stop-color="#87AFFF"/><stop offset="1" stop-color="#6698FA"/></linearGradient><linearGradient id="paint26_linear" x1="69.988" y1="35.236" x2="69.988" y2="102.424" gradientUnits="userSpaceOnUse"><stop stop-color="#87AFFF"/><stop offset="1" stop-color="#6698FA"/></linearGradient><linearGradient id="paint27_linear" x1="60.968" y1="35.232" x2="60.968" y2="69.39" gradientUnits="userSpaceOnUse"><stop stop-color="#87AFFF"/><stop offset="1" stop-color="#6698FA"/></linearGradient><filter id="filter0_d" x="0" y="0" width="149.371" height="153.989" filterUnits="userSpaceOnUse" color-interpolation-filters="sRGB"><feFlood flood-opacity="0" result="BackgroundImageFix"/><feColorMatrix in="SourceAlpha" values="0 0 0 0 0 0 0 0 0 0 0 0 0 0 0 0 0 0 127 0"/><feOffset dy="15"/><feGaussianBlur stdDeviation="15"/><feColorMatrix values="0 0 0 0 0.419608 0 0 0 0 0.611765 0 0 0 0 0.984314 0 0 0 0.25 0"/><feBlend in2="BackgroundImageFix" result="effect1_dropShadow"/><feBlend in="SourceGraphic" in2="effect1_dropShadow" result="shape"/></filter></defs></svg>